<?xml version="1.0" encoding="utf-8"?>
<!-- Generator: Adobe Illustrator 22.1.0, SVG Export Plug-In . SVG Version: 6.00 Build 0)  -->
<svg version="1.1" id="Слой_1" xmlns="http://www.w3.org/2000/svg" xmlns:xlink="http://www.w3.org/1999/xlink" x="0px" y="0px"
	 viewBox="0 0 165 165" style="enable-background:new 0 0 165 165;" xml:space="preserve">
<style type="text/css">
	.st0{fill:#2A353E;}
</style>
<g>
	<g>
		<path class="st0" d="M124.3,75.5v13.9h13.9V75.5H124.3z M131.2,85.5c-1.7,0-3-1.4-3-3c0-1.7,1.4-3,3-3c1.7,0,3,1.4,3,3
			C134.2,84.2,132.9,85.5,131.2,85.5z"/>
		<path class="st0" d="M26.8,75.5v13.9h13.9V75.5H26.8z M33.8,85.5c-1.7,0-3-1.4-3-3c0-1.7,1.4-3,3-3c1.7,0,3,1.4,3,3
			C36.8,84.2,35.5,85.5,33.8,85.5z"/>
	</g>
	<g>
		<path class="st0" d="M89.5,124.3H75.5v13.9h13.9V124.3z M79.5,131.2c0-1.7,1.4-3,3-3c1.7,0,3,1.4,3,3c0,1.7-1.4,3-3,3
			C80.8,134.2,79.5,132.9,79.5,131.2z"/>
		<path class="st0" d="M89.5,26.8H75.5v13.9h13.9V26.8z M79.5,33.8c0-1.7,1.4-3,3-3c1.7,0,3,1.4,3,3c0,1.7-1.4,3-3,3
			C80.8,36.8,79.5,35.5,79.5,33.8z"/>
	</g>
	<path class="st0" d="M100.7,68c-0.1-0.1-0.2-0.3-0.3-0.4c0-0.1-0.1-0.1-0.1-0.2c-0.2-0.2-0.3-0.4-0.5-0.6c0-0.1-0.1-0.1-0.2-0.2
		c-0.2-0.2-0.4-0.4-0.6-0.6c-1.9-1.9-4-3.3-6.2-4.4c-0.1,0-0.1-0.1-0.2-0.1c-0.2-0.1-0.4-0.2-0.7-0.3c-0.1-0.1-0.3-0.1-0.4-0.2
		c-0.1-0.1-0.3-0.1-0.4-0.2c-0.2-0.1-0.5-0.2-0.7-0.3c-0.1,0-0.1,0-0.2-0.1c-2.4-0.8-4.9-1.3-7.5-1.3c0,0,0,0,0,0
		c-0.3,0-0.5,0-0.8,0c-0.1,0-0.2,0-0.2,0c-0.2,0-0.4,0-0.6,0c-0.1,0-0.1,0-0.2,0c-0.2,0-0.5,0-0.7,0.1c-0.1,0-0.2,0-0.3,0
		c-0.1,0-0.3,0-0.4,0c-0.1,0-0.2,0-0.4,0.1c-0.1,0-0.2,0-0.3,0.1c-0.2,0-0.5,0.1-0.7,0.1c-0.1,0-0.1,0-0.2,0c-0.2,0-0.3,0.1-0.5,0.1
		c0,0-0.1,0-0.1,0c-0.3,0.1-0.6,0.2-1,0.2c0,0-0.1,0-0.1,0c-0.1,0-0.2,0.1-0.3,0.1l-0.1,0c-3.5,1.1-6.9,3-9.7,5.8c0,0,0,0,0,0
		c-0.2,0.2-0.4,0.4-0.5,0.5c-0.1,0.1-0.1,0.1-0.2,0.2c-0.1,0.1-0.3,0.3-0.4,0.4c0,0.1-0.1,0.1-0.1,0.2c-0.1,0.2-0.3,0.3-0.4,0.5
		c-0.1,0.1-0.1,0.2-0.2,0.3c-0.1,0.1-0.2,0.2-0.2,0.3c-0.1,0.1-0.2,0.2-0.2,0.3c-0.1,0.1-0.1,0.2-0.2,0.3c-0.1,0.2-0.3,0.4-0.4,0.6
		c0,0.1-0.1,0.1-0.1,0.2c-0.1,0.1-0.2,0.3-0.3,0.4c0,0,0,0.1,0,0.1c-0.2,0.3-0.3,0.6-0.5,0.9c0,0,0,0.1-0.1,0.1
		c0,0.1-0.1,0.2-0.1,0.2h0c-0.2,0.3-0.3,0.6-0.5,1l-1.2,3c-0.1,0.4-0.3,0.8-0.4,1.3c0,0,0,0.1,0,0.1c-0.1,0.5-0.2,1-0.3,1.5
		c0,0.1,0,0.2,0,0.3c0,0.2-0.1,0.4-0.1,0.6c0,0.1,0,0.3-0.1,0.4c0,0.1,0,0.2,0,0.4c0,0.2,0,0.4-0.1,0.5c0,0.1,0,0.2,0,0.2
		c0,0.2,0,0.5,0,0.7c0,0.1,0,0.1,0,0.2c0,0.3,0,0.5,0,0.8c0,3.8,0.9,7.4,2.6,10.6l0,0c0.1,0.1,0.1,0.2,0.2,0.3
		c0.1,0.1,0.1,0.2,0.2,0.3c0.1,0.2,0.2,0.4,0.3,0.5c0,0,0,0.1,0,0.1c0.3,0.5,0.6,0.9,0.9,1.3c0,0.1,0.1,0.1,0.1,0.2
		c0.1,0.2,0.2,0.3,0.4,0.5c0.1,0.1,0.2,0.2,0.3,0.4c0.1,0.1,0.1,0.2,0.2,0.3c0.1,0.1,0.2,0.3,0.3,0.4c0,0.1,0.1,0.1,0.1,0.2
		c0.2,0.2,0.3,0.4,0.5,0.6c0,0.1,0.1,0.1,0.2,0.2c0.2,0.2,0.4,0.4,0.6,0.6c1.9,1.9,4,3.3,6.2,4.4c0.1,0,0.1,0.1,0.2,0.1
		c0.2,0.1,0.4,0.2,0.7,0.3c0.1,0.1,0.3,0.1,0.4,0.2c0.1,0.1,0.3,0.1,0.4,0.2c0.2,0.1,0.5,0.2,0.7,0.3c0.1,0,0.1,0,0.2,0.1
		c2.4,0.8,4.9,1.3,7.5,1.3c0,0,0,0,0,0c0.3,0,0.5,0,0.8,0c0.1,0,0.2,0,0.2,0c0.2,0,0.4,0,0.6,0c0.1,0,0.1,0,0.2,0
		c0.2,0,0.5,0,0.7-0.1c0.1,0,0.2,0,0.3,0c0.1,0,0.3,0,0.4,0c0.1,0,0.2,0,0.4-0.1c0.1,0,0.2,0,0.3-0.1c0.2,0,0.5-0.1,0.7-0.1
		c0.1,0,0.1,0,0.2,0c0.2,0,0.3-0.1,0.5-0.1c0,0,0.1,0,0.1,0c0.3-0.1,0.6-0.2,1-0.2c0,0,0.1,0,0.1,0c0.1,0,0.2-0.1,0.3-0.1l0,0
		c3.6-1.1,7-3,9.8-5.8c0,0,0,0,0,0c0.2-0.2,0.4-0.4,0.5-0.5c0.1-0.1,0.1-0.1,0.2-0.2c0.1-0.1,0.3-0.3,0.4-0.4c0-0.1,0.1-0.1,0.1-0.2
		c0.1-0.2,0.3-0.3,0.4-0.5c0.1-0.1,0.1-0.2,0.2-0.3c0.1-0.1,0.2-0.2,0.2-0.3c0.1-0.1,0.2-0.2,0.2-0.3c0.1-0.1,0.1-0.2,0.2-0.3
		c0.1-0.2,0.3-0.4,0.4-0.6c0-0.1,0.1-0.1,0.1-0.2c0.1-0.1,0.2-0.3,0.3-0.4c0,0,0-0.1,0-0.1c0.2-0.3,0.3-0.6,0.5-0.9
		c0,0,0-0.1,0.1-0.1c0-0.1,0.1-0.2,0.1-0.2l1.3-2.9c0.1-0.3,0.2-0.7,0.3-1l0,0c0.1-0.3,0.2-0.6,0.3-0.9c0,0,0,0,0-0.1
		c0-0.1,0.1-0.2,0.1-0.3c0,0,0-0.1,0-0.1c0-0.1,0.1-0.3,0.1-0.4c0-0.1,0.1-0.3,0.1-0.4c0.1-0.2,0.1-0.5,0.2-0.7c0-0.1,0-0.2,0-0.3
		c0-0.2,0.1-0.4,0.1-0.6c0-0.1,0-0.3,0.1-0.4c0-0.1,0-0.2,0-0.4c0-0.2,0-0.4,0.1-0.5c0-0.1,0-0.2,0-0.2c0-0.2,0-0.5,0-0.7
		c0-0.1,0-0.1,0-0.2c0-0.3,0-0.5,0-0.8c0-2.6-0.4-5.2-1.3-7.5c0-0.1,0-0.1-0.1-0.2l0,0c-0.3-1-0.7-1.9-1.2-2.8l-0.1-0.1
		c-0.1-0.1-0.1-0.2-0.2-0.3c-0.1-0.1-0.1-0.2-0.2-0.3c-0.1-0.2-0.2-0.4-0.3-0.5c0,0,0-0.1,0-0.1c-0.3-0.5-0.6-0.9-0.9-1.3
		c0-0.1-0.1-0.1-0.1-0.2c-0.1-0.2-0.2-0.3-0.4-0.5c-0.1-0.1-0.2-0.2-0.3-0.4C100.8,68.2,100.7,68.1,100.7,68z"/>
	<path class="st0" d="M122.9,74.2h6.2c-3.5-19.4-18.8-34.8-38.2-38.2v6.2H74.3V36C54.8,39.4,39.5,54.8,36,74.2h6.2v16.6H36
		c3.5,19.4,18.8,34.8,38.2,38.2v-6.2h16.6v6.2c19.4-3.5,34.8-18.8,38.2-38.2h-6.2V74.2z M107.4,82.5
		C107.4,82.5,107.4,82.5,107.4,82.5C107.4,82.5,107.4,82.5,107.4,82.5c0,3.4-0.7,6.7-2,9.8l-0.8,1.9l-0.1-0.1
		c-2.4,4.5-6.1,8.2-10.7,10.5l0.1,0.1l-1.9,0.8c-2,0.8-4.1,1.4-6.2,1.6c0,0,0,0,0,0c-0.2,0-0.4,0-0.6,0.1c0,0,0,0,0,0
		c-0.2,0-0.4,0-0.5,0c0,0-0.1,0-0.1,0c-0.2,0-0.3,0-0.5,0c0,0-0.1,0-0.1,0c-0.2,0-0.3,0-0.5,0c0,0-0.1,0-0.1,0c-0.2,0-0.4,0-0.6,0
		c0,0,0,0,0,0c0,0,0,0,0,0c-13.7,0-24.8-11.1-24.8-24.8c0,0,0,0,0,0s0,0,0,0c0,0,0,0,0,0c0-3.4,0.7-6.7,2-9.8l0.9-1.8
		c2.4-4.5,6.1-8.2,10.7-10.5l1.9-0.9c2-0.8,4.1-1.4,6.2-1.6c0,0,0,0,0,0c0.2,0,0.4,0,0.6-0.1c0,0,0,0,0,0c0.2,0,0.4,0,0.5,0
		c0,0,0.1,0,0.1,0c0.2,0,0.3,0,0.5,0c0,0,0.1,0,0.1,0c0.2,0,0.3,0,0.5,0c0,0,0.1,0,0.1,0c0.2,0,0.4,0,0.6,0c0,0,0,0,0,0c0,0,0,0,0,0
		C96.2,57.7,107.4,68.8,107.4,82.5C107.4,82.5,107.4,82.5,107.4,82.5z"/>
	<path class="st0" d="M43,44.9c1.5-1.5,2.7-3.3,3.3-4.8c0.4-1.1,0.4-2.1,0.1-2.5v0c-0.2-0.2-0.5-0.3-0.8-0.3c-0.4,0-1,0.1-1.6,0.3
		c-1.5,0.6-3.3,1.7-4.8,3.3c-1.5,1.5-2.7,3.3-3.3,4.8c-0.4,1.1-0.4,2.1-0.1,2.5C36.5,49.1,39.8,48.1,43,44.9z"/>
	<path class="st0" d="M37.5,49.6l5.1,5.1c2.9-4.1,6.4-7.8,10.4-10.8L48.1,39c-0.6,2-2,4.4-4.1,6.5C41.9,47.6,39.6,49.1,37.5,49.6z"
		/>
</g>
</svg>
