<?xml version="1.0" encoding="utf-8"?>
<!-- Generator: Adobe Illustrator 22.1.0, SVG Export Plug-In . SVG Version: 6.00 Build 0)  -->
<svg version="1.1" id="Слой_1" xmlns="http://www.w3.org/2000/svg" xmlns:xlink="http://www.w3.org/1999/xlink" x="0px" y="0px"
	 viewBox="0 0 165 165" style="enable-background:new 0 0 165 165;" xml:space="preserve">
<style type="text/css">
	.st0{fill:#2A353E;}
</style>
<g>
	<rect x="68.4" y="123.1" class="st0" width="28.1" height="5.8"/>
	<g>
		<circle class="st0" cx="72.1" cy="133.5" r="1.5"/>
		<circle class="st0" cx="82.5" cy="133.5" r="1.5"/>
		<circle class="st0" cx="92.9" cy="133.5" r="1.5"/>
		<path class="st0" d="M98,129.5H67c-0.4,0-0.8,0.4-0.8,0.8v6.5c0,0.4,0.4,0.8,0.8,0.8h31c0.4,0,0.8-0.4,0.8-0.8v-6.5
			C98.8,129.8,98.4,129.5,98,129.5z M72.1,135.2c-0.9,0-1.7-0.8-1.7-1.7s0.8-1.7,1.7-1.7s1.7,0.8,1.7,1.7S73.1,135.2,72.1,135.2z
			 M82.5,135.2c-0.9,0-1.7-0.8-1.7-1.7s0.8-1.7,1.7-1.7c0.9,0,1.7,0.8,1.7,1.7S83.4,135.2,82.5,135.2z M92.9,135.2
			c-0.9,0-1.7-0.8-1.7-1.7s0.8-1.7,1.7-1.7c0.9,0,1.7,0.8,1.7,1.7S93.8,135.2,92.9,135.2z"/>
	</g>
	<g>
		<path class="st0" d="M99.8,71.4H65.2c-0.5,0-0.9,0.4-0.9,0.9v21c0,0.5,0.4,0.9,0.9,0.9h34.6c0.5,0,0.9-0.4,0.9-0.9v-21
			C100.7,71.8,100.3,71.4,99.8,71.4z"/>
		<path class="st0" d="M115.3,35.9l-7-7c-0.9-0.9-2.2-1.5-3.5-1.5H60.1c-1.3,0-2.6,0.5-3.5,1.5l-7,7c-0.9,0.9-1.5,2.2-1.5,3.5v72.2
			c0,3.8,3.1,6.9,6.9,6.9h11.3v1c0,1.6,1.3,3,3,3h27.4c1.6,0,3-1.3,3-3v-1h10.1c3.8,0,6.9-3.1,6.9-6.9V39.4
			C116.8,38.1,116.3,36.8,115.3,35.9z M101.4,93.3c0,0.9-0.7,1.7-1.7,1.7H65.2c-0.9,0-1.7-0.7-1.7-1.7v-21c0-0.9,0.7-1.7,1.7-1.7
			h34.6c0.9,0,1.7,0.7,1.7,1.7V93.3z"/>
	</g>
	<g>
		<path class="st0" d="M120.5,46.6h-2.9v13h2.9c3.6,0,6.5-2.9,6.5-6.5C127,49.6,124.1,46.6,120.5,46.6z M121.9,54.9
			c-1,0-1.8-0.8-1.8-1.8s0.8-1.8,1.8-1.8s1.8,0.8,1.8,1.8S122.9,54.9,121.9,54.9z"/>
		<path class="st0" d="M120.5,88.4h-2.9v13h2.9c3.6,0,6.5-2.9,6.5-6.5C127,91.4,124.1,88.4,120.5,88.4z M121.9,96.7
			c-1,0-1.8-0.8-1.8-1.8s0.8-1.8,1.8-1.8s1.8,0.8,1.8,1.8S122.9,96.7,121.9,96.7z"/>
		<path class="st0" d="M38,53.1c0,3.6,2.9,6.5,6.5,6.5h2.9v-13h-2.9C40.9,46.6,38,49.6,38,53.1z M41.3,53.1c0-1,0.8-1.8,1.8-1.8
			s1.8,0.8,1.8,1.8s-0.8,1.8-1.8,1.8S41.3,54.1,41.3,53.1z"/>
		<path class="st0" d="M38,94.9c0,3.6,2.9,6.5,6.5,6.5h2.9v-13h-2.9C40.9,88.4,38,91.4,38,94.9z M41.3,94.9c0-1,0.8-1.8,1.8-1.8
			s1.8,0.8,1.8,1.8s-0.8,1.8-1.8,1.8S41.3,95.9,41.3,94.9z"/>
	</g>
</g>
</svg>
