<?xml version="1.0" encoding="utf-8"?>
<!-- Generator: Adobe Illustrator 22.1.0, SVG Export Plug-In . SVG Version: 6.00 Build 0)  -->
<svg version="1.1" id="Слой_1" xmlns="http://www.w3.org/2000/svg" xmlns:xlink="http://www.w3.org/1999/xlink" x="0px" y="0px"
	 viewBox="0 0 165 165" style="enable-background:new 0 0 165 165;" xml:space="preserve">
<style type="text/css">
	.st0{fill:#2A353E;}
</style>
<g>
	<g transform="translate(0,-288.53332)">
		<path class="st0" d="M90.9,385.6v-10.2c0.6,0.8,1.3,1.6,2.2,2.4v13C91.7,389.1,90.9,387.4,90.9,385.6z"/>
		<path class="st0" d="M90.9,365.5c0,3.1,2.3,6,6.2,8.2c4,2.2,9.5,3.6,15.7,3.6s11.7-1.4,15.7-3.6c4-2.2,6.2-5.2,6.2-8.2
			c0-3.1-2.3-6-6.2-8.2c-4-2.2-9.5-3.6-15.7-3.6c-6.2,0-11.7,1.4-15.7,3.6C93.2,359.4,90.9,362.4,90.9,365.5z M100.9,364.5
			c0-3.8,5.3-6.9,11.9-6.9c6.6,0,11.9,3.1,11.9,6.9c0,0.1,0,0.1,0,0.2c-2.5-2.6-6.8-4-11.6-4.1c-5,0-9.5,1.4-12.1,4.1
			C100.9,364.7,100.9,364.6,100.9,364.5L100.9,364.5z M101.6,366.8c1.8-2.5,6.3-4.4,11.4-4.3c5,0,9.3,1.9,11,4.3
			c-1.7,2.7-6.2,4.6-11.2,4.6C107.8,371.4,103.3,369.5,101.6,366.8z"/>
		<path class="st0" d="M91,391c1.3,1.7,3.1,3.2,5.2,4.4c4.3,2.4,10.1,3.9,16.6,3.9c6.4,0,12.3-1.4,16.6-3.9c2.2-1.2,4-2.7,5.3-4.4
			c-0.4,2.8-2.6,5.4-6.2,7.4c-4,2.2-9.5,3.6-15.7,3.6c-6.2,0-11.7-1.4-15.7-3.6C93.5,396.4,91.3,393.8,91,391z"/>
		<path class="st0" d="M91,370.9c1.3,1.7,3.1,3.2,5.3,4.4c4.3,2.4,10.2,3.9,16.6,3.9c6.4,0,12.3-1.5,16.6-3.9c2.2-1.2,4-2.7,5.3-4.4
			c-0.4,2.8-2.6,5.4-6.2,7.4c-4,2.2-9.5,3.6-15.7,3.6c-6.2,0-11.7-1.4-15.7-3.6C93.5,376.3,91.3,373.7,91,370.9z"/>
		<path class="st0" d="M94.9,392.4v-13.3c0.4,0.3,0.8,0.5,1.3,0.8c0.5,0.3,1,0.6,1.6,0.8v13.5c-0.2-0.1-0.5-0.2-0.7-0.3
			C96.3,393.4,95.6,392.9,94.9,392.4L94.9,392.4z"/>
		<path class="st0" d="M99.6,395v-13.6c0.9,0.4,1.9,0.7,2.9,0.9V396C101.5,395.7,100.5,395.4,99.6,395z"/>
		<path class="st0" d="M104.3,396.5v-13.7c0.9,0.2,1.9,0.4,2.9,0.5V397C106.2,396.9,105.3,396.7,104.3,396.5z"/>
		<path class="st0" d="M109,397.2v-13.7c0.9,0.1,1.9,0.1,2.9,0.2v13.7C110.9,397.4,110,397.3,109,397.2z"/>
		<path class="st0" d="M113.7,397.4v-13.7c1,0,1.9-0.1,2.9-0.2v13.7C115.7,397.3,114.7,397.4,113.7,397.4L113.7,397.4z"/>
		<path class="st0" d="M118.4,397v-13.7c1-0.1,1.9-0.3,2.9-0.5v13.7C120.4,396.7,119.4,396.9,118.4,397z"/>
		<path class="st0" d="M123.1,396v-13.6c1-0.3,2-0.6,2.9-0.9V395C125.1,395.4,124.2,395.7,123.1,396z"/>
		<path class="st0" d="M127.8,394.2v-13.5c0.5-0.3,1.1-0.5,1.6-0.8c0.5-0.3,0.9-0.5,1.3-0.8v13.3c-0.7,0.5-1.4,1-2.2,1.5
			C128.3,393.9,128.1,394,127.8,394.2L127.8,394.2z"/>
		<path class="st0" d="M132.6,390.7v-13c0.9-0.7,1.6-1.5,2.2-2.4v10.3C134.8,387.4,134,389.1,132.6,390.7z"/>
		<path class="st0" d="M112.8,364.5c2,0,3.7,0.8,3.7,1.8v0c0,1-1.6,1.8-3.7,1.8l0,0c-2,0-3.7-0.8-3.7-1.8c0,0,0,0,0,0
			C109.2,365.4,110.8,364.5,112.8,364.5L112.8,364.5z"/>
	</g>
	<g>
		
			<rect x="48.4" y="115.3" transform="matrix(-1 -1.224647e-16 1.224647e-16 -1 108.0023 245.9764)" class="st0" width="11.2" height="15.4"/>
		<path class="st0" d="M48.4,132h11.2c0.6,0,1.1,0.5,1.1,1.1l-0.3,4.8c0,0.6-0.5,1.1-1.1,1.1H48.7c-0.6,0-1.1-0.5-1.1-1.1l-0.3-4.8
			C47.3,132.5,47.8,132,48.4,132z"/>
		<path class="st0" d="M75.1,59.6H32.9c-1.5,0-2.7-1.2-2.7-2.7v-0.3c0-1.5,1.2-2.7,2.7-2.7h42.2c1.5,0,2.7,1.2,2.7,2.7v0.3
			C77.8,58.4,76.6,59.6,75.1,59.6z"/>
		<rect x="48.4" y="34.3" class="st0" width="11.2" height="18.3"/>
		<rect x="32.5" y="60.9" class="st0" width="43" height="4.2"/>
		<path class="st0" d="M59.6,33H48.4c-0.6,0-1.1-0.5-1.1-1.1l0.3-4.8c0-0.6,0.5-1.1,1.1-1.1h10.7c0.6,0,1.1,0.5,1.1,1.1l0.3,4.8
			C60.7,32.5,60.2,33,59.6,33z"/>
		<g>
			<path class="st0" d="M69.8,75.1H38.2c-0.7,0-1.3,0.6-1.3,1.3V104c0,0.7,0.6,1.3,1.3,1.3h31.5c0.7,0,1.3-0.6,1.3-1.3V76.4
				C71,75.7,70.5,75.1,69.8,75.1z"/>
			<path class="st0" d="M76.2,66.5H31.8c-0.9,0-1.6,0.7-1.6,1.6v44.3c0,0.9,0.7,1.6,1.6,1.6h44.3c0.9,0,1.6-0.7,1.6-1.6V68
				C77.8,67.2,77,66.5,76.2,66.5z M71.7,104c0,1.1-0.9,1.9-1.9,1.9H38.2c-1.1,0-1.9-0.9-1.9-1.9V76.4c0-1.1,0.9-1.9,1.9-1.9h31.5
				c1.1,0,1.9,0.9,1.9,1.9V104z"/>
		</g>
	</g>
</g>
</svg>
