<?xml version="1.0" encoding="utf-8"?>
<!-- Generator: Adobe Illustrator 22.1.0, SVG Export Plug-In . SVG Version: 6.00 Build 0)  -->
<svg version="1.1" id="Слой_1" xmlns="http://www.w3.org/2000/svg" xmlns:xlink="http://www.w3.org/1999/xlink" x="0px" y="0px"
	 viewBox="0 0 165 165" style="enable-background:new 0 0 165 165;" xml:space="preserve">
<style type="text/css">
	.st0{fill:#2A353E;}
</style>
<g>
	<g>
		<rect x="103.9" y="100.9" class="st0" width="27.3" height="1.6"/>
		<path class="st0" d="M103.3,103.4v2.3c0,0,2.2,4.5,14.2,4.5s14.2-4.5,14.2-4.5v-2.3H103.3z"/>
		<path class="st0" d="M126.6,109.9c-2.1,0.7-5,1.2-9,1.2s-6.9-0.5-9-1.2v7.5c0,0.4,0.5,0.7,1.4,1v1.8c0,0.6,1.8,2.5,4.3,2.7v8.1
			c-0.3,0.1-0.4,0.3-0.4,0.4v2c0,0.1,0.1,0.2,0.2,0.3v0.1c-0.1,0.1-0.2,0.2-0.2,0.3v2.3c0,0.5,1.7,0.9,3.8,0.9s3.8-0.4,3.8-0.9v-2.3
			c0-0.1-0.1-0.2-0.2-0.3v-0.1c0.1-0.1,0.2-0.2,0.2-0.3v-2c0-0.1-0.2-0.3-0.4-0.4v-8.1c2.6-0.3,4.3-2.1,4.3-2.7v-1.8
			c0.9-0.3,1.4-0.6,1.4-1V109.9z"/>
		<rect x="103" y="88.5" class="st0" width="29" height="11.6"/>
		<rect x="106.5" y="72.9" class="st0" width="22.1" height="1.9"/>
		<rect x="107.5" y="67.9" class="st0" width="20.1" height="4.1"/>
		<polygon class="st0" points="106.3,65.7 128.8,65.7 127.6,67 107.5,67 		"/>
		<rect x="106.3" y="60.7" class="st0" width="22.5" height="4.1"/>
		<polygon class="st0" points="127.1,56.9 107.9,56.9 106.3,59.9 128.8,59.9 		"/>
		<path class="st0" d="M120.7,28.2c0-0.2-1.4-0.3-3.2-0.3s-3.2,0.1-3.2,0.3l-0.7,4.6c0,0.2,1.7,0.4,3.9,0.4s3.9-0.2,3.9-0.4
			L120.7,28.2z"/>
		<path class="st0" d="M123.4,46.8c-1.1-0.4-2-1.1-2.6-2v-11c-0.7,0.1-1.9,0.2-3.3,0.2c-1.4,0-2.7-0.1-3.3-0.2v11
			c-0.5,0.9-1.4,1.6-2.6,2h0l-3.7,5.5v3.8h6.2h6.7h6.2v-3.8L123.4,46.8z"/>
		<path class="st0" d="M101.5,63.2c0.4-0.1,1.4-0.5,1.1-1.3l-2.8-8.5c-0.2-0.7-1-1.1-1.6-0.8l-15.7,5.8c-0.9,0.4-1,0.8-0.9,1
			l2.8,8.7c0.2,0.7,1,1.1,1.6,0.8l9.4-3.1l7.2,21.8h6.7L101.5,63.2z"/>
		<path class="st0" d="M132.3,75.5h-26l3.9,12.1h22.8c1,0,1.8-0.8,1.8-1.8v-7.6C134.9,76.7,133.7,75.5,132.3,75.5z"/>
		<path class="st0" d="M94.2,86.7L92.3,81l-0.7,0.2c-0.3,0.1-0.7-0.1-0.8-0.4l-3.7-11.5l7.8-2.5l6.9,20.8h-6.6
			C94.7,87.6,94.3,87,94.2,86.7z"/>
		<path class="st0" d="M86.3,69.3l-0.7,0.2c-0.7,0.2-1.4-0.2-1.6-0.8l-0.2-0.7l-1.3,1.8c-0.3,0.7,0.3,1.3,1,1.1l3.1-1L86.3,69.3z"/>
	</g>
	<g>
		<rect x="52.4" y="100.9" class="st0" width="27.3" height="1.6"/>
		<path class="st0" d="M51.8,103.4v2.3c0,0,2.2,4.5,14.2,4.5s14.2-4.5,14.2-4.5v-2.3H51.8z"/>
		<path class="st0" d="M75.1,109.9c-2.1,0.7-5,1.2-9,1.2s-6.9-0.5-9-1.2v7.5c0,0.4,0.5,0.7,1.4,1v1.8c0,0.6,1.8,2.5,4.3,2.7v8.1
			c-0.3,0.1-0.4,0.3-0.4,0.4v2c0,0.1,0.1,0.2,0.2,0.3v0.1c-0.1,0.1-0.2,0.2-0.2,0.3v2.3c0,0.5,1.7,0.9,3.8,0.9
			c2.1,0,3.8-0.4,3.8-0.9v-2.3c0-0.1-0.1-0.2-0.2-0.3v-0.1c0.1-0.1,0.2-0.2,0.2-0.3v-2c0-0.1-0.2-0.3-0.4-0.4v-8.1
			c2.6-0.3,4.3-2.1,4.3-2.7v-1.8c0.9-0.3,1.4-0.6,1.4-1V109.9z"/>
		<rect x="51.5" y="88.5" class="st0" width="29" height="11.6"/>
		<rect x="55" y="72.9" class="st0" width="22.1" height="1.9"/>
		<rect x="56" y="67.9" class="st0" width="20.1" height="4.1"/>
		<polygon class="st0" points="54.8,65.7 77.3,65.7 76.1,67 56,67 		"/>
		<rect x="54.8" y="60.7" class="st0" width="22.5" height="4.1"/>
		<polygon class="st0" points="75.6,56.9 56.4,56.9 54.8,59.9 77.3,59.9 		"/>
		<path class="st0" d="M69.2,28.2c0-0.2-1.4-0.3-3.2-0.3s-3.2,0.1-3.2,0.3l-0.7,4.6c0,0.2,1.7,0.4,3.9,0.4s3.9-0.2,3.9-0.4
			L69.2,28.2z"/>
		<path class="st0" d="M71.9,46.8c-1.1-0.4-2-1.1-2.6-2v-11C68.7,33.9,67.5,34,66,34c-1.4,0-2.7-0.1-3.3-0.2v11
			c-0.5,0.9-1.4,1.6-2.6,2h0l-3.7,5.5v3.8h6.2h6.7h6.2v-3.8L71.9,46.8z"/>
		<path class="st0" d="M50,63.2c0.4-0.1,1.4-0.5,1.1-1.3l-2.8-8.5c-0.2-0.7-1-1.1-1.6-0.8L31,58.4c-0.9,0.4-1,0.8-0.9,1l2.8,8.7
			c0.2,0.7,1,1.1,1.6,0.8l9.4-3.1l7.2,21.8h6.7L50,63.2z"/>
		<path class="st0" d="M80.8,75.5h-26l3.9,12.1h22.8c1,0,1.8-0.8,1.8-1.8v-7.6C83.4,76.7,82.2,75.5,80.8,75.5z"/>
		<path class="st0" d="M42.7,86.7L40.8,81l-0.7,0.2c-0.3,0.1-0.7-0.1-0.8-0.4l-3.7-11.5l7.8-2.5l6.9,20.8h-6.6
			C43.2,87.6,42.8,87,42.7,86.7z"/>
		<path class="st0" d="M34.8,69.3l-0.7,0.2c-0.7,0.2-1.4-0.2-1.6-0.8l-0.2-0.7L31,69.9c-0.3,0.7,0.3,1.3,1,1.1l3.1-1L34.8,69.3z"/>
	</g>
</g>
</svg>
