<?xml version="1.0" encoding="utf-8"?>
<!-- Generator: Adobe Illustrator 22.1.0, SVG Export Plug-In . SVG Version: 6.00 Build 0)  -->
<svg version="1.1" id="Слой_1" xmlns="http://www.w3.org/2000/svg" xmlns:xlink="http://www.w3.org/1999/xlink" x="0px" y="0px"
	 viewBox="0 0 165 165" style="enable-background:new 0 0 165 165;" xml:space="preserve">
<style type="text/css">
	.st0{fill:#2A353E;}
</style>
<g>
	<path class="st0" d="M108.3,126.1c7.1-6.1,11.8-14.5,13.4-23.6c0,0,0,0,0-0.1c0.3-0.3,0.5-0.6,0.6-0.9c0.3-0.7,0.3-1.9-0.1-3.6
		c0,0,0,0,0,0c0-0.4,0-0.8,0-1.1c0,0,0,0,0,0c0.4-1.3,0.5-2.7,0.1-4l-0.3-1.3c0,0,0,0,0-0.1l0.3-0.9c0.4-1.1,0.3-2.4-0.4-3.4l-1-1.5
		c0,0,0,0,0-0.1l0.1-0.6c0.3-1.6-0.2-3.3-1.3-4.5l-0.9-1c0,0,0,0,0-0.1c0.2-2.1-0.8-4.1-2.7-5.1l-0.1-0.1l0-0.7
		c0.1-1.6-0.9-3.2-2.4-3.8l-1.5-0.6c0,0,0,0,0-0.1c0-1.8-1.3-3.4-3.1-3.8l-1.2-0.3l0-0.1c-0.1-0.8-0.5-1.6-1-2.2
		c-2,0.8-4.3,2-5.7,2.8c10.5,6.5,17,17.9,17,30.4c0,19.7-16,35.7-35.7,35.7s-35.7-16-35.7-35.7c0-16,10.8-30,25.9-34.3
		c-0.3-1.4-1-2.8-2.2-3.8c-7.4,2.3-14,6.8-19,12.9c-5.8,7.1-9,16-9,25.2c0,22,17.9,39.9,39.9,39.9
		C91.9,135.7,101.1,132.3,108.3,126.1z"/>
	<path class="st0" d="M69.9,31.6l-7.2-2.3c-0.1,0-0.2-0.1-0.2-0.1l-0.8,0.1c-0.5,0.2-1.1,0.7-1.6,1.6L57,53.5
		c0.2,0.7,0.5,1.2,0.9,1.5l0.8,0.3c0.1,0,0.2,0,0.3,0l7.5-0.3c0.1,0,0.1,0,0.2,0c0,0,0.7,0,0.7-0.3l2.7-23l0,0
		C70,31.7,70,31.7,69.9,31.6z"/>
	<path class="st0" d="M58.4,31.3L49.1,30c-0.7-0.1-1.3,0.1-1.8,0.6c-0.5,0.5-0.8,1-1.1,1.6c-0.9,1.9-2.8,6.4-3.1,8.5l0,0
		c0,0.7,0.3,1.4,0.9,1.8c0.4,0.3,0.8,0.5,1.1,0.7c0,0,0,0.1,0,0.1l-1,1.7c0,0-0.1,0.1-0.1,0c-0.2,0-0.5,0-0.7,0.2
		c-0.2,0.2-0.3,0.4-0.3,0.7c0,0.8,0.2,1.5,0.4,2.2l0.3,0.8c0.3,0.8,1,1.4,1.9,1.5l9.7,1.7L58.4,31.3z"/>
	<path class="st0" d="M96.1,66.5c4-2.8,8.2-4.8,12.9-6.1c1-0.2,1.7-1,1.8-2l2.4-16.8c0.1-0.4,0.1-0.7,0.1-1c0.1-3.5-2.2-4.1-6.7-5
		l-29.4-5.5c-2.1-0.4-3.7-0.1-5.4,1.1l-2.5,21.6c0,0,0,0,0,0c4.3,4.5,5.5,7,5.9,10.5c0.6,0.6,1.4,1,2.3,1.2L93.5,67
		C94.4,67.2,95.3,67,96.1,66.5z"/>
</g>
</svg>
