<?xml version="1.0" encoding="utf-8"?>
<!-- Generator: Adobe Illustrator 22.1.0, SVG Export Plug-In . SVG Version: 6.00 Build 0)  -->
<svg version="1.1" id="Слой_1" 
	xmlns="http://www.w3.org/2000/svg" 
	xmlns:xlink="http://www.w3.org/1999/xlink" x="0px" y="0px" viewBox="0 0 166 36" style="enable-background:new 0 0 166 36;" xml:space="preserve">
	<style type="text/css">
	.st0{fill:#E04228;}
	.st1{fill:#D9E2E2;}
	</style>
	<g>
		<g>
			<path class="st0" d="M6,4.9c3.7-3,8.5-4.6,14.3-4.6c2.2,0,4.2,0.2,6.1,0.5C28,1.1,29.4,1.5,30.4,2l-1.9,7.5
			C27.4,9,26.2,8.6,25,8.4c-1.4-0.3-3.1-0.4-4.9-0.4c-3.1,0-5.6,0.8-7.4,2.4c-2.1,1.8-3.1,4.3-3.1,7.7c0,3.2,0.9,5.7,2.8,7.6
			c1.8,1.8,4.2,2.7,7.1,2.7c1.5,0,2.5-0.1,2.9-0.3v-6H18v-7.2h13.6v19c-1.6,0.5-3.4,0.9-5.5,1.3c-2.4,0.4-4.6,0.7-6.7,0.7
			c-0.1,0-0.2,0-0.2,0c-6.3,0-11.1-1.6-14.4-4.7C1.6,27.9,0,23.8,0,18.6C0,12.7,2,8.2,6,4.9z"/>
		</g>
		<g>
			<rect x="41.8" y="0.3" class="st0" width="1.9" height="35.4"/>
		</g>
	</g>
</svg>
