<?xml version="1.0" encoding="utf-8"?>
<!-- Generator: Adobe Illustrator 22.1.0, SVG Export Plug-In . SVG Version: 6.00 Build 0)  -->
<svg version="1.1" id="Слой_1" xmlns="http://www.w3.org/2000/svg" xmlns:xlink="http://www.w3.org/1999/xlink" x="0px" y="0px"
	 viewBox="0 0 165 165" style="enable-background:new 0 0 165 165;" xml:space="preserve">
<style type="text/css">
	.st0{fill:#2A353E;}
</style>
<path class="st0" d="M28.1,88.1c0.1,1.2,0.3,2.4,0.5,3.7l0.3,1.8c0.1,0.6,0.3,1.2,0.4,1.8l0.9,3.6l1.3,3.5c0.2,0.6,0.4,1.2,0.7,1.7
	l0.8,1.7c2,4.5,4.8,8.6,8,12.4c3.2,3.8,7,7,11,9.9l3.2,1.9c0.5,0.3,1.1,0.6,1.6,0.9l1.7,0.8c1.1,0.5,2.2,1.1,3.4,1.6l3.5,1.3
	c3.4,1.1,6.9,1.9,10.4,2.4c0.5,0.1,1,0.1,1.5,0c0.5-0.1,0.9-0.3,1.4-0.5c0.9-0.5,1.7-1.2,2.3-2.1c1.3-1.9,1.9-4.5,1.9-7.5
	c0-3-0.6-5.7-1.4-7.7c-0.4-1-0.8-1.8-1.3-2.3c-0.2-0.3-0.5-0.5-0.8-0.6c-0.3-0.2-0.6-0.3-0.9-0.4c-2.2-0.3-4.3-0.8-6.3-1.5l-2.1-0.8
	c-0.7-0.3-1.4-0.7-2-1l-1-0.5c-0.3-0.2-0.6-0.4-1-0.6l-1.9-1.2c-2.4-1.8-4.8-3.7-6.7-6c-1.9-2.3-3.7-4.8-4.9-7.6l-0.5-1
	c-0.1-0.3-0.3-0.7-0.4-1.1l-0.8-2.1l-0.6-2.2c-0.1-0.4-0.2-0.7-0.3-1.1l-0.2-1.1c-2.2-12,2.9-24.7,12.6-32.1
	c2.3-1.9,5.1-3.3,7.8-4.5c1.4-0.5,2.8-1.1,4.3-1.4c1.4-0.5,2.9-0.6,4.4-0.9c3-0.3,6.1-0.4,9,0.2c1.5,0.1,2.9,0.6,4.4,1
	c0.7,0.2,1.4,0.5,2.1,0.7c0.7,0.3,1.4,0.5,2.1,0.8l2,1c0.7,0.4,1.3,0.8,1.9,1.2l1,0.6l0.9,0.7l1.8,1.4c2.3,2,4.4,4.2,6.1,6.7
	c1.6,2.5,3.2,5.1,4.1,8l0.4,1.1c0.1,0.4,0.2,0.7,0.3,1.1l0.6,2.2l0.4,2.4c0,0.3,0.2,0.6,0.4,0.9c0.2,0.3,0.4,0.5,0.6,0.8
	c0.6,0.5,1.4,0.9,2.3,1.3c2,0.8,4.7,1.4,7.7,1.4s5.6-0.7,7.5-1.9c0.9-0.6,1.7-1.4,2.1-2.3c0.2-0.4,0.4-0.9,0.5-1.4
	c0.1-0.5,0.1-1,0-1.5l-0.6-4l-0.9-3.6c-0.2-0.6-0.3-1.2-0.5-1.8l-0.6-1.7c-1.5-4.7-4-9.1-6.7-13.2c-2.8-4.1-6.2-7.7-10-10.9
	c-1-0.8-2-1.5-2.9-2.2l-1.5-1.1l-1.6-1c-1.1-0.6-2.1-1.3-3.2-1.9l-3.3-1.6c-1.1-0.6-2.3-1-3.4-1.4c-1.2-0.4-2.3-0.9-3.5-1.2
	c-2.4-0.6-4.8-1.3-7.2-1.6c-4.9-0.8-9.8-0.8-14.7-0.3c-2.4,0.4-4.9,0.7-7.3,1.4c-2.4,0.5-4.7,1.4-7,2.3c-4.5,2-8.9,4.3-12.8,7.4
	l-1.5,1.1l-1.4,1.2c-0.9,0.8-1.8,1.6-2.7,2.5c-1.7,1.8-3.4,3.6-4.8,5.6c-1.5,1.9-2.8,4.1-4.1,6.2c-0.6,1.1-1.1,2.2-1.7,3.3
	c-0.5,1.1-1.1,2.2-1.5,3.4l-1.3,3.5c-0.4,1.2-0.6,2.4-1,3.6L29,71.5c-0.1,0.6-0.2,1.2-0.3,1.8L28.1,77l-0.2,3.7l-0.1,1.8
	c0,0.6,0,1.2,0.1,1.8L28.1,88.1z M74.5,132.9c1.2,0.2,2.4-0.4,3.2-1.5c0.9-1.2,1.4-2.8,1.6-4.7c0.1-1.9-0.1-3.6-0.6-4.8
	c-0.5-1.3-1.2-2.2-2-2.3c-0.6-0.1-1.2,0.2-1.8,0.7c1.1-1.9,2.3-3.2,3.3-3c0.9,0.2,1.7,1.2,2.2,3c0.6,1.7,1,4.1,0.9,6.6
	c-0.1,2.5-0.7,4.8-1.7,6.4c-1,1.6-2.4,2.7-3.8,2.4c-1.6-0.2-2.8-1.8-3.3-4C73,132.4,73.7,132.8,74.5,132.9z M33.3,80
	c0.4-7.4,2.5-14.9,6.1-21.4c3.7-6.5,8.8-12.2,14.9-16.5c6.1-4.4,13.3-7.1,20.6-8.3c7.4-1.2,15-0.7,22.2,1.5
	c14.3,4.4,26.5,15.4,31.7,29.5c-0.4,0.8-0.8,1.4-1.4,2c-2.4-6.7-6.3-13-11.5-18c-5.1-5-11.4-8.8-18.2-11.1
	c-13.6-4.7-29.3-2.5-41.2,5.4c-12,7.9-20.2,21.4-21.2,35.8c-1.2,14.3,4.4,29.1,15.1,38.7c-0.2,0.7-0.4,1.5-0.4,2.4
	c-5.6-4.9-10.1-11.1-13-18C34.2,95,32.9,87.4,33.3,80z"/>
</svg>
