<?xml version="1.0" encoding="utf-8"?>
<!-- Generator: Adobe Illustrator 22.1.0, SVG Export Plug-In . SVG Version: 6.00 Build 0)  -->
<svg version="1.1" id="Слой_1" xmlns="http://www.w3.org/2000/svg" xmlns:xlink="http://www.w3.org/1999/xlink" x="0px" y="0px"
	 viewBox="0 0 165 165" style="enable-background:new 0 0 165 165;" xml:space="preserve">
<style type="text/css">
	.st0{fill:#2A353E;}
</style>
<g>
	<g>
		<polygon class="st0" points="69.2,58 69.7,65.5 70.1,73.5 72.5,73.3 71.6,57.9 		"/>
		<polygon class="st0" points="72.6,73.3 72.6,73.3 72.6,73.3 		"/>
		<path class="st0" d="M65.1,64c-0.9,0.8-1.3,1.8-1.2,2.9c0.1,1.5,1.1,2.5,2.4,3l-0.4-6.4C65.6,63.6,65.4,63.8,65.1,64z"/>
		<polygon class="st0" points="68.6,58.1 66.2,58.2 67.1,73.6 69.5,73.5 69,66 		"/>
		<polygon class="st0" points="107.1,63.4 107.1,63 107.1,63.4 		"/>
		<path class="st0" d="M117.6,86.8c0.2-1.6,0.3-3.2,0.3-4.8c0-19.6-15.9-35.5-35.5-35.5S47,62.5,47,82c0,14.7,9,27.4,21.8,32.7
			l-0.5-4.3l1.5-0.2l0.7,5.1c3.8,1.4,7.8,2.1,12,2.1c6.4,0,12.3-1.7,17.5-4.6l-2.6-3.8l1.2-0.8l2.6,3.9c8.3-5.2,14.4-13.8,16.2-23.8
			l-3.7-1l0.4-1.4L117.6,86.8z M107.2,63.8c-6.7,1.3-26.1,5.1-34.2,6.5l0.2,3.1c0,0.3-0.2,0.5-0.5,0.5h0L70,74.1c0,0,0,0,0,0
			c0,0-0.1,0-0.1,0c-0.1,0-0.1,0-0.2,0h0L67,74.3c0,0,0,0,0,0c-0.3,0-0.5-0.2-0.5-0.5l-0.2-3.3c-1.8-0.6-2.9-1.9-3.1-3.6
			c-0.1-1.4,0.4-2.5,1.5-3.4c0.3-0.3,0.7-0.5,1.1-0.7l-0.3-4.7c0-0.1,0-0.3,0.1-0.4c0.1-0.1,0.2-0.2,0.3-0.2l2.7-0.2
			c0.1,0,0.1,0,0.2,0c0.1,0,0.1,0,0.2,0l2.7-0.2c0.1,0,0.3,0,0.4,0.1c0.1,0.1,0.2,0.2,0.2,0.3l0.3,4.3c8.4,0.1,27.8,0.6,34.6,0.7
			c0.3,0,0.5,0.2,0.5,0.5C107.7,63.5,107.5,63.7,107.2,63.8z"/>
		<path class="st0" d="M72.9,69.6c7.8-1.4,25.6-4.8,33.1-6.3c-7.6-0.2-25.5-0.7-33.5-0.7L72.9,69.6z"/>
	</g>
	<circle class="st0" cx="82.5" cy="34.2" r="3.4"/>
	<path class="st0" d="M126.4,104.7c-0.5-0.3-1.1-0.5-1.7-0.5c-0.3,0-0.6,0-0.9,0.1c-0.9,0.2-1.6,0.8-2.1,1.6c-1,1.6-0.4,3.7,1.2,4.7
		c0.8,0.5,1.7,0.6,2.6,0.4c0.9-0.2,1.6-0.8,2.1-1.6c0.5-0.8,0.6-1.7,0.4-2.6S127.1,105.1,126.4,104.7z"/>
	<path class="st0" d="M82.5,126.7c-1.8,0-3.4,1.5-3.4,3.4c0,1.8,1.5,3.4,3.4,3.4c1.8,0,3.4-1.5,3.4-3.4
		C85.9,128.2,84.3,126.7,82.5,126.7z"/>
	<path class="st0" d="M42.1,54.7c-0.5-0.3-1.1-0.5-1.7-0.5c-1.2,0-2.3,0.6-3,1.7c-0.5,0.8-0.6,1.7-0.4,2.6s0.8,1.6,1.6,2.1
		c1.6,1,3.7,0.4,4.7-1.2C44.3,57.8,43.8,55.7,42.1,54.7z"/>
	<path class="st0" d="M40.4,104.2c-0.6,0-1.2,0.2-1.7,0.5c-0.8,0.5-1.3,1.2-1.6,2.1s-0.1,1.8,0.4,2.6c1,1.6,3.1,2.2,4.7,1.2
		c1.6-1,2.2-3.1,1.2-4.7C42.7,104.8,41.6,104.2,40.4,104.2z"/>
	<path class="st0" d="M125.5,54.4c-0.9-0.2-1.8-0.1-2.6,0.4c-1.6,1-2.2,3.1-1.2,4.7c0.5,0.8,1.2,1.3,2.1,1.6
		c0.9,0.2,1.8,0.1,2.6-0.4c0.8-0.5,1.3-1.2,1.6-2.1s0.1-1.8-0.4-2.6S126.3,54.6,125.5,54.4z"/>
	<g>
		<path class="st0" d="M103.7,116.8c1-1,2.1-1.7,3.4-2.3c9.8-7.4,16.1-19.2,16.1-32.4c0-22.5-18.3-40.7-40.7-40.7S41.8,59.6,41.8,82
			c0,13.2,6.3,25,16.1,32.4c1.3,0.6,2.4,1.4,3.4,2.3c6.2,3.8,13.5,6,21.2,6C90.3,122.8,97.6,120.6,103.7,116.8z M46.4,82
			c0-9.6,3.8-18.7,10.6-25.5c6.8-6.8,15.9-10.6,25.5-10.6s18.7,3.8,25.5,10.6c6.8,6.8,10.6,15.9,10.6,25.5s-3.8,18.7-10.6,25.5
			c-6.8,6.8-15.9,10.6-25.5,10.6s-18.7-3.8-25.5-10.6C50.1,100.7,46.4,91.7,46.4,82z"/>
		<path class="st0" d="M82.5,123.4c-7.1,0-13.8-1.8-19.9-5.1c1.5,2.1,2.4,4.6,2.4,7.3v7.4c11.2,4.7,23.8,4.7,34.9,0v-7.4
			c0-2.7,0.9-5.3,2.4-7.3C96.3,121.7,89.6,123.4,82.5,123.4z M82.5,134.1c-2.2,0-4-1.8-4-4c0-2.2,1.8-4,4-4c2.2,0,4,1.8,4,4
			C86.5,132.3,84.7,134.1,82.5,134.1z"/>
		<path class="st0" d="M126.5,51.8l-39.1-23c-3-1.8-6.8-1.8-9.8,0l-39.1,23c-2.8,1.7-4.6,4.8-4.6,8.1v49.5c0,3.3,1.7,6.4,4.6,8.1
			l3.4,2.1c2.1-3.8,6.2-6.3,10.8-6.3c1.1,0,2.2,0.1,3.2,0.4c-0.9-0.8-1.8-1.6-2.6-2.4c-7.8-7.8-12.1-18.2-12.1-29.3
			c0-11.1,4.3-21.4,12.1-29.3s18.2-12.1,29.3-12.1s21.4,4.3,29.3,12.1S123.9,71,123.9,82c0,11.1-4.3,21.4-12.1,29.3
			c-0.9,0.9-1.7,1.7-2.6,2.4c1-0.3,2.1-0.4,3.2-0.4h0c4.6,0,8.7,2.6,10.8,6.3l3.4-2.1c2.8-1.7,4.6-4.8,4.6-8.1V60
			C131.1,56.6,129.4,53.6,126.5,51.8z M43.9,105.5c1.1,1.9,0.5,4.4-1.4,5.6c-0.7,0.4-1.4,0.6-2.1,0.6c-1.4,0-2.8-0.7-3.5-2
			c-0.6-0.9-0.7-2-0.4-3.1c0.3-1.1,0.9-1.9,1.9-2.5C40.2,102.9,42.8,103.6,43.9,105.5z M43.9,59.8c-0.8,1.3-2.1,2-3.5,2
			c-0.7,0-1.4-0.2-2.1-0.6c-0.9-0.6-1.6-1.4-1.9-2.5c-0.3-1.1-0.1-2.2,0.4-3.1c1.1-1.9,3.7-2.6,5.6-1.4
			C44.4,55.3,45.1,57.8,43.9,59.8z M82.5,38.2c-2.2,0-4-1.8-4-4c0-2.2,1.8-4,4-4c2.2,0,4,1.8,4,4C86.5,36.4,84.7,38.2,82.5,38.2z
			 M128.1,109.7c-0.6,0.9-1.4,1.6-2.5,1.9c-0.3,0.1-0.7,0.1-1,0.1c-0.7,0-1.4-0.2-2.1-0.6c-1.9-1.1-2.6-3.7-1.4-5.6
			c0.6-0.9,1.4-1.6,2.5-1.9c1.1-0.3,2.2-0.1,3.1,0.4c0.9,0.6,1.6,1.4,1.9,2.5C128.8,107.7,128.7,108.8,128.1,109.7z M128.6,58.7
			c-0.3,1.1-0.9,1.9-1.9,2.5c-0.6,0.4-1.4,0.6-2.1,0.6c-0.3,0-0.7,0-1-0.1c-1.1-0.3-1.9-0.9-2.5-1.9c-1.1-1.9-0.5-4.4,1.4-5.6
			c0.9-0.6,2-0.7,3.1-0.4c1.1,0.3,1.9,0.9,2.5,1.9C128.7,56.5,128.8,57.6,128.6,58.7z"/>
	</g>
	<g>
		<path class="st0" d="M53.5,122.5c-0.2-0.2-0.5-0.4-0.8-0.4c-0.3,0-0.6,0.1-0.8,0.4l-2.8,3.2c-0.1,0.1-0.1,0.2-0.1,0.3
			c0,0.1,0.1,0.2,0.2,0.3l0.6,0.2c0.4,0.2,0.7,0.6,0.7,1v4.3c0,0.4,0.4,0.8,0.8,0.8h2.9c0.4,0,0.8-0.4,0.8-0.8v-4.3
			c0-0.4,0.3-0.9,0.7-1l0.6-0.2c0.1,0,0.2-0.1,0.2-0.3c0-0.1,0-0.2-0.1-0.3L53.5,122.5z"/>
		<path class="st0" d="M52.7,113.9c-6.5,0-11.7,5.3-11.7,11.7v11.9h23.5v-11.9C64.4,119.2,59.1,113.9,52.7,113.9z M57,126.1
			c-0.1,0.3-0.3,0.6-0.6,0.7l-0.6,0.2c-0.2,0.1-0.3,0.2-0.3,0.4v4.3c0,0.8-0.7,1.5-1.5,1.5h-2.9c-0.8,0-1.5-0.7-1.5-1.5v-4.3
			c0-0.2-0.1-0.4-0.3-0.4l-0.6-0.2c-0.3-0.1-0.5-0.4-0.6-0.7c-0.1-0.3,0-0.7,0.2-0.9l2.8-3.2c0.3-0.4,0.8-0.6,1.3-0.6s1,0.2,1.3,0.6
			l2.8,3.2C57,125.5,57.1,125.8,57,126.1z"/>
	</g>
	<g>
		<path class="st0" d="M112.3,113.9c-6.5,0-11.7,5.3-11.7,11.7v11.9h23.5v-11.9C124.1,119.2,118.8,113.9,112.3,113.9z M116.5,129.5
			l-2.8,3.2c-0.3,0.4-0.8,0.6-1.3,0.6c0,0,0,0,0,0c-0.5,0-1-0.2-1.3-0.6l-2.8-3.2c-0.2-0.2-0.3-0.6-0.2-0.9c0.1-0.3,0.3-0.6,0.6-0.7
			l0.6-0.2c0.2-0.1,0.3-0.2,0.3-0.4v-4.3c0-0.8,0.7-1.5,1.5-1.5h2.9c0.8,0,1.5,0.7,1.5,1.5v4.3c0,0.2,0.1,0.4,0.3,0.4l0.6,0.2
			c0.3,0.1,0.5,0.4,0.6,0.7C116.8,128.9,116.7,129.2,116.5,129.5z"/>
		<path class="st0" d="M115.8,128.5l-0.6-0.2c-0.4-0.2-0.7-0.6-0.7-1v-4.3c0-0.4-0.4-0.8-0.8-0.8h-2.9c-0.4,0-0.8,0.4-0.8,0.8v4.3
			c0,0.4-0.3,0.9-0.7,1l-0.6,0.2c-0.1,0-0.2,0.1-0.2,0.3c0,0.1,0,0.2,0.1,0.3l2.8,3.2c0.2,0.2,0.5,0.4,0.8,0.4
			c0.3,0,0.6-0.1,0.8-0.4l2.8-3.2c0.1-0.1,0.1-0.2,0.1-0.3C116,128.6,115.9,128.5,115.8,128.5z"/>
	</g>
	<g>
		<path class="st0" d="M20.4,83.2c0-4,1.1-7.3,2.5-7.3h-4.6c-1.4,0-2.5,3.3-2.5,7.3c0,4,1,7.3,2.4,7.3h4.6
			C21.4,90.5,20.4,87.2,20.4,83.2z"/>
		<g>
			<path class="st0" d="M23,83.2c0,2.4,0.7,3.9,1.2,3.9h1.5c0.2-1.1,0.4-2.4,0.4-3.9c0-1.4-0.1-2.7-0.4-3.9h-1.5
				C23.7,79.3,23,80.8,23,83.2z"/>
			<path class="st0" d="M24.2,87.7c-1.2,0-1.9-2.3-1.9-4.5s0.7-4.5,1.9-4.5h1.3c-0.5-1.7-1.2-2.8-2-2.8c-1.4,0-2.5,3.3-2.5,7.3
				c0,4,1,7.3,2.4,7.3c0.8,0,1.6-1.1,2.1-2.8H24.2z"/>
		</g>
		<path class="st0" d="M33.1,79.3h-8.9c-0.5,0-1.2,1.5-1.2,3.9c0,2.4,0.7,3.9,1.2,3.9h8.9V79.3z"/>
	</g>
	<g>
		<path class="st0" d="M144.6,82.8c0,4-1.1,7.3-2.5,7.3h4.6c1.4,0,2.5-3.3,2.5-7.3c0-4-1.1-7.3-2.5-7.3h-4.6
			C143.4,75.5,144.6,78.8,144.6,82.8z"/>
		<g>
			<path class="st0" d="M142,82.8c0-2.4-0.7-3.9-1.2-3.9h-1.5c-0.2,1.1-0.4,2.4-0.4,3.9c0,1.4,0.1,2.7,0.4,3.9h1.5
				C141.3,86.7,142,85.2,142,82.8z"/>
			<path class="st0" d="M140.8,78.3c1.2,0,1.9,2.3,1.9,4.5s-0.7,4.5-1.9,4.5h-1.3c0.5,1.7,1.2,2.8,2,2.8c1.4,0,2.5-3.3,2.5-7.3
				c0-4-1.1-7.3-2.5-7.3c-0.8,0-1.5,1.1-2,2.8H140.8z"/>
		</g>
		<path class="st0" d="M131.9,86.7h8.9c0.5,0,1.2-1.5,1.2-3.9c0-2.4-0.7-3.9-1.2-3.9h-8.9L131.9,86.7z"/>
	</g>
</g>
</svg>
