<?xml version="1.0" encoding="utf-8"?>
<!-- Generator: Adobe Illustrator 22.1.0, SVG Export Plug-In . SVG Version: 6.00 Build 0)  -->
<svg version="1.1" id="Слой_1" xmlns="http://www.w3.org/2000/svg" xmlns:xlink="http://www.w3.org/1999/xlink" x="0px" y="0px"
	 viewBox="0 0 165 165" style="enable-background:new 0 0 165 165;" xml:space="preserve">
<style type="text/css">
	.st0{fill:#2A353E;}
</style>
<g>
	<rect x="58.6" y="39.9" class="st0" width="51.4" height="13.1"/>
	<rect x="72" y="26" class="st0" width="24.6" height="13.1"/>
	<g>
		<path class="st0" d="M69,39.1h-7v-1.3c0-1.5,1.2-2.6,2.6-2.6h1.8c1.5,0,2.6,1.2,2.6,2.6V39.1z"/>
		<path class="st0" d="M106.7,39.1h-7v-1.3c0-1.5,1.2-2.6,2.6-2.6h1.8c1.5,0,2.6,1.2,2.6,2.6V39.1z"/>
	</g>
	<polygon class="st0" points="107.9,28.8 107.9,29.1 107,29.1 107,28.8 104.5,28.8 104.5,29.1 103.6,29.1 103.6,28.8 101.1,28.8 
		101.1,29.1 100.2,29.1 100.2,28.8 99,28.8 99,28.6 97.4,28.6 97.4,28.8 97.4,34.2 97.4,34.5 99,34.5 99,34.2 100.2,34.2 100.2,34 
		101.1,34 101.1,34.2 103.6,34.2 103.6,34 104.5,34 104.5,34.2 107,34.2 107,34 107.9,34 107.9,34.2 110.8,34.2 110.8,28.8 	"/>
	<polygon class="st0" points="47.4,65 47.4,64.8 48.3,64.8 48.3,65 50.8,65 50.8,64.8 51.7,64.8 51.7,65 54.2,65 54.2,64.8 
		55.1,64.8 55.1,65 56.3,65 56.3,65.3 57.9,65.3 57.9,65 57.9,58.2 57.9,57.9 56.3,57.9 56.3,58.2 55.1,58.2 55.1,58.4 54.2,58.4 
		54.2,58.2 51.7,58.2 51.7,58.4 50.8,58.4 50.8,58.2 48.3,58.2 48.3,58.4 47.4,58.4 47.4,58.2 42.3,58.2 42.3,65 	"/>
	<path class="st0" d="M51.9,103.5H35.9V99c0-6.6,5.3-11.9,11.9-11.9h4V103.5z"/>
	<g>
		<rect x="52.6" y="91.3" class="st0" width="5.3" height="8.1"/>
		<rect x="52.6" y="87.1" class="st0" width="5.3" height="3.4"/>
		<rect x="52.6" y="100.1" class="st0" width="5.3" height="3.4"/>
	</g>
	<rect x="110.8" y="91.3" class="st0" width="5.3" height="8.1"/>
	<rect x="110.8" y="88.5" class="st0" width="5.3" height="2.8"/>
	<rect x="110.8" y="99.2" class="st0" width="5.3" height="2.8"/>
	<path class="st0" d="M50.2,116.6v-2h0.5v-2h-0.5v-2h0.5v-2h-0.5v-2h0.5v-2.3H37.1v2.3h0.5v2h-0.5v2h0.5v2h-0.5v2h0.5v2h-0.5v1
		c0,1,0.8,1.9,1.9,1.9h9.8c1,0,1.9-0.8,1.9-1.9v-1H50.2z"/>
	<path class="st0" d="M129.2,89h-2v-0.5h-2V89h-2v-0.5h-2V89h-2v-0.5h-2.3v13.6h2.3v-0.5h2v0.5h2v-0.5h2v0.5h2v-0.5h2v0.5h1
		c1,0,1.9-0.8,1.9-1.9v-9.8c0-1-0.8-1.9-1.9-1.9h-1V89z"/>
	<g>
		<path class="st0" d="M71.9,62.4c-3.6,0-6.6,2.9-6.6,6.6c0,3.6,2.9,6.6,6.6,6.6c3.6,0,6.6-2.9,6.6-6.6
			C78.4,65.3,75.5,62.4,71.9,62.4z M74.4,70l-1.5,1.5h-2.1L69.3,70v-2.1l1.5-1.5h2.1l1.5,1.5V70z"/>
		<polygon class="st0" points="95.9,66.8 94.6,68.1 94.6,69.8 95.9,71.1 97.7,71.1 98.9,69.8 98.9,68.1 97.7,66.8 		"/>
		<path class="st0" d="M96.8,62.4c-3.6,0-6.6,2.9-6.6,6.6c0,3.6,2.9,6.6,6.6,6.6c3.6,0,6.6-2.9,6.6-6.6
			C103.4,65.3,100.4,62.4,96.8,62.4z M99.3,70l-1.5,1.5h-2.1L94.3,70v-2.1l1.5-1.5h2.1l1.5,1.5V70z"/>
		<path class="st0" d="M58.6,53.7v75.5H110V53.7H58.6z M71.9,75.9c-3.8,0-6.9-3.1-6.9-6.9c0-3.8,3.1-6.9,6.9-6.9
			c3.8,0,6.9,3.1,6.9,6.9C78.8,72.8,75.7,75.9,71.9,75.9z M96.8,75.9c-3.8,0-6.9-3.1-6.9-6.9c0-3.8,3.1-6.9,6.9-6.9
			c3.8,0,6.9,3.1,6.9,6.9C103.7,72.8,100.6,75.9,96.8,75.9z"/>
		<polygon class="st0" points="71,66.8 69.7,68.1 69.7,69.8 71,71.1 72.8,71.1 74,69.8 74,68.1 72.8,66.8 		"/>
	</g>
	<rect x="61.8" y="129.9" class="st0" width="45" height="5.3"/>
</g>
</svg>
