<?xml version="1.0" encoding="utf-8"?>
<!-- Generator: Adobe Illustrator 22.1.0, SVG Export Plug-In . SVG Version: 6.00 Build 0)  -->
<svg version="1.1" id="Слой_1" xmlns="http://www.w3.org/2000/svg" xmlns:xlink="http://www.w3.org/1999/xlink" x="0px" y="0px"
	 viewBox="0 0 165 165" style="enable-background:new 0 0 165 165;" xml:space="preserve">
<style type="text/css">
	.st0{fill:#2A353E;}
</style>
<g>
	<path class="st0" d="M113.2,99.7c-4.7,0-8.5,3.8-8.5,8.5c0,4.7,3.8,8.5,8.5,8.5s8.5-3.8,8.5-8.5C121.7,103.5,117.9,99.7,113.2,99.7
		z M113.2,115.4c-4,0-7.2-3.2-7.2-7.2c0-4,3.2-7.2,7.2-7.2c4,0,7.2,3.2,7.2,7.2C120.4,112.1,117.2,115.4,113.2,115.4z"/>
	
		<ellipse transform="matrix(0.9871 -0.1602 0.1602 0.9871 -15.8616 19.5315)" class="st0" cx="113.2" cy="108.1" rx="6.4" ry="6.4"/>
	<g>
		<polygon class="st0" points="96.4,120.4 94.8,123.2 96.4,126 99.7,126 101.3,123.2 99.7,120.4 		"/>
		<path class="st0" d="M142.3,101.2c-1.6-3.6-5.4-5.6-9.2-5.1l0,0l-7.8,1l-7.9-17v-6.6V41.9c0-3.9-3.2-7-7-7H33c-3.9,0-7,3.2-7,7
			v31.6c0,3.9,3.2,7,7,7h16.4l40.4,46.6l0,0c2.4,2.9,6.6,3.9,10.2,2.3l37.8-16.7C142.2,110.8,144.2,105.6,142.3,101.2z M111.5,38
			c1.6,0,2.9,1.3,2.9,2.9c0,1.6-1.3,2.9-2.9,2.9c-1.6,0-2.9-1.3-2.9-2.9C108.6,39.3,109.9,38,111.5,38z M32.8,38
			c1.6,0,2.9,1.3,2.9,2.9c0,1.6-1.3,2.9-2.9,2.9c-1.6,0-2.9-1.3-2.9-2.9C29.9,39.3,31.2,38,32.8,38z M35.9,55.6
			c0,0.4-0.3,0.7-0.7,0.7c-0.4,0-0.7-0.3-0.7-0.7c0-0.4,0.3-0.7,0.7-0.7C35.6,54.9,35.9,55.2,35.9,55.6z M31.6,60.5
			c0,0.4-0.3,0.7-0.7,0.7c-0.4,0-0.7-0.3-0.7-0.7c0-0.4,0.3-0.7,0.7-0.7C31.2,59.7,31.6,60.1,31.6,60.5z M29.4,56.3
			c-0.4,0-0.7-0.3-0.7-0.7c0-0.4,0.3-0.7,0.7-0.7s0.7,0.3,0.7,0.7C30.1,56,29.8,56.3,29.4,56.3z M32.8,76.9c-1.6,0-2.9-1.3-2.9-2.9
			c0-1.6,1.3-2.9,2.9-2.9c1.6,0,2.9,1.3,2.9,2.9C35.7,75.6,34.4,76.9,32.8,76.9z M36.6,61.2c-0.4,0-0.7-0.3-0.7-0.7
			c0-0.4,0.3-0.7,0.7-0.7c0.4,0,0.7,0.3,0.7,0.7C37.4,60.9,37,61.2,36.6,61.2z M53.7,67.7c-6.3,0-11.3-5.1-11.3-11.3
			c0-6.3,5.1-11.3,11.3-11.3S65,50.1,65,56.3C65,62.6,60,67.7,53.7,67.7z M73.5,71.8c-1.1,0-2-0.9-2-2c0-1.1,0.9-2,2-2
			c1.1,0,2,0.9,2,2C75.6,70.9,74.7,71.8,73.5,71.8z M73.5,45c-1.1,0-2-0.9-2-2c0-1.1,0.9-2,2-2c1.1,0,2,0.9,2,2
			C75.6,44.1,74.7,45,73.5,45z M78.8,54.6c0-7.5,6.1-13.7,13.7-13.7c7.5,0,13.7,6.1,13.7,13.7S100,68.2,92.4,68.2
			C84.9,68.2,78.8,62.1,78.8,54.6z M100.1,126.8h-4.2l-2.1-3.6l2.1-3.6h4.2l2.1,3.6L100.1,126.8z M113.2,117.6
			c-5.1,0-9.3-4.2-9.3-9.3c0-5.1,4.2-9.3,9.3-9.3c5.1,0,9.3,4.2,9.3,9.3C122.5,113.5,118.3,117.6,113.2,117.6z M136.2,108.8H132
			l-2.1-3.6l2.1-3.6h4.2l2.1,3.6L136.2,108.8z"/>
		<polygon class="st0" points="132.5,102.3 130.8,105.1 132.5,108 135.7,108 137.3,105.1 135.7,102.3 		"/>
	</g>
</g>
</svg>
