<?xml version="1.0" encoding="utf-8"?><svg xmlns="http://www.w3.org/2000/svg" xmlns:xlink="http://www.w3.org/1999/xlink"><symbol viewBox="0 0 8 8" id="arrow" xmlns="http://www.w3.org/2000/svg"><path d="M8 2.1c0 .1 0 .1-.1.2L4.2 6.1c-.1.1-.3.1-.4 0L.1 2.3C0 2.2 0 2 .1 1.9c.1-.1.3-.1.4 0L4 5.5l3.6-3.6c.1-.1.3-.1.4 0v.2z"/></symbol><symbol viewBox="0 0 53 53" id="arrow-downlaod" xmlns="http://www.w3.org/2000/svg"><path d="M26.5 0C11.8 0 0 11.8 0 26.5S11.8 53 26.5 53 53 41.2 53 26.5 41.2 0 26.5 0zm-4.4 26.1V14.3h8.8v11.8h5.9l-10.3 8.8-10.3-8.8h5.9zm17.7 14.7H13.3v-2.9h26.5v2.9z"/></symbol><symbol id="ballon-lpg" viewBox="0 0 165 165" xml:space="preserve" xmlns="http://www.w3.org/2000/svg"><style>.cst0{fill:#2a353e}</style><path class="cst0" d="M124.3 75.5v13.9h13.9V75.5h-13.9zm6.9 10c-1.7 0-3-1.4-3-3 0-1.7 1.4-3 3-3 1.7 0 3 1.4 3 3 0 1.7-1.3 3-3 3zm-104.4-10v13.9h13.9V75.5H26.8zm7 10c-1.7 0-3-1.4-3-3 0-1.7 1.4-3 3-3 1.7 0 3 1.4 3 3 0 1.7-1.3 3-3 3zm55.7 38.8h-14v13.9h13.9v-13.9zm-10 6.9c0-1.7 1.4-3 3-3 1.7 0 3 1.4 3 3 0 1.7-1.4 3-3 3-1.7 0-3-1.3-3-3zm10-104.4h-14v13.9h13.9V26.8zm-10 7c0-1.7 1.4-3 3-3 1.7 0 3 1.4 3 3 0 1.7-1.4 3-3 3-1.7 0-3-1.3-3-3zM100.7 68c-.1-.1-.2-.3-.3-.4 0-.1-.1-.1-.1-.2-.2-.2-.3-.4-.5-.6 0-.1-.1-.1-.2-.2L99 66c-1.9-1.9-4-3.3-6.2-4.4-.1 0-.1-.1-.2-.1-.2-.1-.4-.2-.7-.3-.1-.1-.3-.1-.4-.2-.1-.1-.3-.1-.4-.2-.2-.1-.5-.2-.7-.3-.1 0-.1 0-.2-.1-2.4-.8-4.9-1.3-7.5-1.3h-1.8c-.2 0-.5 0-.7.1h-.7c-.1 0-.2 0-.4.1-.1 0-.2 0-.3.1-.2 0-.5.1-.7.1h-.2c-.2 0-.3.1-.5.1h-.1c-.3.1-.6.2-1 .2h-.1c-.1 0-.2.1-.3.1h-.1c-3.5 1.1-6.9 3-9.7 5.8l-.5.5-.2.2-.4.4c0 .1-.1.1-.1.2-.1.2-.3.3-.4.5-.1.1-.1.2-.2.3-.1.1-.2.2-.2.3-.1.1-.2.2-.2.3-.1.1-.1.2-.2.3-.1.2-.3.4-.4.6 0 .1-.1.1-.1.2-.1.1-.2.3-.3.4v.1c-.2.3-.3.6-.5.9 0 0 0 .1-.1.1 0 .1-.1.2-.1.2-.2.3-.3.6-.5 1l-1.2 3c-.1.4-.3.8-.4 1.3v.1l-.3 1.5v.3c0 .2-.1.4-.1.6 0 .1 0 .3-.1.4v.4c0 .2 0 .4-.1.5v1.9c0 3.8.9 7.4 2.6 10.6.1.1.1.2.2.3.1.1.1.2.2.3.1.2.2.4.3.5v.1c.3.5.6.9.9 1.3 0 .1.1.1.1.2.1.2.2.3.4.5.1.1.2.2.3.4.1.1.1.2.2.3.1.1.2.3.3.4 0 .1.1.1.1.2.2.2.3.4.5.6 0 .1.1.1.2.2l.6.6c1.9 1.9 4 3.3 6.2 4.4.1 0 .1.1.2.1.2.1.4.2.7.3.1.1.3.1.4.2.1.1.3.1.4.2.2.1.5.2.7.3.1 0 .1 0 .2.1 2.4.8 4.9 1.3 7.5 1.3h1.8c.2 0 .5 0 .7-.1h.7c.1 0 .2 0 .4-.1.1 0 .2 0 .3-.1.2 0 .5-.1.7-.1h.2c.2 0 .3-.1.5-.1h.1c.3-.1.6-.2 1-.2h.1c.1 0 .2-.1.3-.1 3.6-1.1 7-3 9.8-5.8l.5-.5.2-.2.4-.4c0-.1.1-.1.1-.2.1-.2.3-.3.4-.5.1-.1.1-.2.2-.3.1-.1.2-.2.2-.3.1-.1.2-.2.2-.3.1-.1.1-.2.2-.3.1-.2.3-.4.4-.6 0-.1.1-.1.1-.2.1-.1.2-.3.3-.4v-.1c.2-.3.3-.6.5-.9 0 0 0-.1.1-.1 0-.1.1-.2.1-.2l1.3-2.9c.1-.3.2-.7.3-1l.3-.9v-.1c0-.1.1-.2.1-.3v-.1c0-.1.1-.3.1-.4 0-.1.1-.3.1-.4.1-.2.1-.5.2-.7v-.3c0-.2.1-.4.1-.6 0-.1 0-.3.1-.4V85c0-.2 0-.4.1-.5v-1.9c0-2.6-.4-5.2-1.3-7.5 0-.1 0-.1-.1-.2-.3-1-.7-1.9-1.2-2.8l-.1-.1c-.1-.1-.1-.2-.2-.3-.1-.1-.1-.2-.2-.3-.1-.2-.2-.4-.3-.5v-.1c-.3-.5-.6-.9-.9-1.3 0-.1-.1-.1-.1-.2-.1-.2-.2-.3-.4-.5-.1-.1-.2-.2-.3-.4 0-.2-.1-.3-.1-.4z"/><path class="cst0" d="M122.9 74.2h6.2c-3.5-19.4-18.8-34.8-38.2-38.2v6.2H74.3V36C54.8 39.4 39.5 54.8 36 74.2h6.2v16.6H36c3.5 19.4 18.8 34.8 38.2 38.2v-6.2h16.6v6.2c19.4-3.5 34.8-18.8 38.2-38.2h-6.2V74.2zm-15.5 8.3c0 3.4-.7 6.7-2 9.8l-.8 1.9-.1-.1c-2.4 4.5-6.1 8.2-10.7 10.5l.1.1-1.9.8c-2 .8-4.1 1.4-6.2 1.6-.2 0-.4 0-.6.1H82.8C69.1 107.2 58 96.1 58 82.4c0-3.4.7-6.7 2-9.8l.9-1.8c2.4-4.5 6.1-8.2 10.7-10.5l1.9-.9c2-.8 4.1-1.4 6.2-1.6.2 0 .4 0 .6-.1h2.4c13.5 0 24.7 11.1 24.7 24.8zM43 44.9c1.5-1.5 2.7-3.3 3.3-4.8.4-1.1.4-2.1.1-2.5-.2-.2-.5-.3-.8-.3-.4 0-1 .1-1.6.3-1.5.6-3.3 1.7-4.8 3.3-1.5 1.5-2.7 3.3-3.3 4.8-.4 1.1-.4 2.1-.1 2.5.7.9 4-.1 7.2-3.3z"/><path class="cst0" d="M37.5 49.6l5.1 5.1c2.9-4.1 6.4-7.8 10.4-10.8L48.1 39c-.6 2-2 4.4-4.1 6.5-2.1 2.1-4.4 3.6-6.5 4.1z"/></symbol><symbol id="ecu-lpg" viewBox="0 0 165 165" xml:space="preserve" xmlns="http://www.w3.org/2000/svg"><style>.dst0{fill:#2a353e}</style><path class="dst0" d="M68.4 123.1h28.1v5.8H68.4z"/><circle class="dst0" cx="72.1" cy="133.5" r="1.5"/><circle class="dst0" cx="82.5" cy="133.5" r="1.5"/><circle class="dst0" cx="92.9" cy="133.5" r="1.5"/><path class="dst0" d="M98 129.5H67c-.4 0-.8.4-.8.8v6.5c0 .4.4.8.8.8h31c.4 0 .8-.4.8-.8v-6.5c0-.5-.4-.8-.8-.8zm-25.9 5.7c-.9 0-1.7-.8-1.7-1.7s.8-1.7 1.7-1.7 1.7.8 1.7 1.7-.7 1.7-1.7 1.7zm10.4 0c-.9 0-1.7-.8-1.7-1.7s.8-1.7 1.7-1.7c.9 0 1.7.8 1.7 1.7s-.8 1.7-1.7 1.7zm10.4 0c-.9 0-1.7-.8-1.7-1.7s.8-1.7 1.7-1.7c.9 0 1.7.8 1.7 1.7s-.8 1.7-1.7 1.7zM99.8 71.4H65.2c-.5 0-.9.4-.9.9v21c0 .5.4.9.9.9h34.6c.5 0 .9-.4.9-.9v-21c0-.5-.4-.9-.9-.9z"/><path class="dst0" d="M115.3 35.9l-7-7c-.9-.9-2.2-1.5-3.5-1.5H60.1c-1.3 0-2.6.5-3.5 1.5l-7 7c-.9.9-1.5 2.2-1.5 3.5v72.2c0 3.8 3.1 6.9 6.9 6.9h11.3v1c0 1.6 1.3 3 3 3h27.4c1.6 0 3-1.3 3-3v-1h10.1c3.8 0 6.9-3.1 6.9-6.9V39.4c.1-1.3-.4-2.6-1.4-3.5zm-13.9 57.4c0 .9-.7 1.7-1.7 1.7H65.2c-.9 0-1.7-.7-1.7-1.7v-21c0-.9.7-1.7 1.7-1.7h34.6c.9 0 1.7.7 1.7 1.7v21z"/><g><path class="dst0" d="M120.5 46.6h-2.9v13h2.9c3.6 0 6.5-2.9 6.5-6.5 0-3.5-2.9-6.5-6.5-6.5zm1.4 8.3c-1 0-1.8-.8-1.8-1.8s.8-1.8 1.8-1.8 1.8.8 1.8 1.8-.8 1.8-1.8 1.8zm-1.4 33.5h-2.9v13h2.9c3.6 0 6.5-2.9 6.5-6.5 0-3.5-2.9-6.5-6.5-6.5zm1.4 8.3c-1 0-1.8-.8-1.8-1.8s.8-1.8 1.8-1.8 1.8.8 1.8 1.8-.8 1.8-1.8 1.8zM38 53.1c0 3.6 2.9 6.5 6.5 6.5h2.9v-13h-2.9c-3.6 0-6.5 3-6.5 6.5zm3.3 0c0-1 .8-1.8 1.8-1.8s1.8.8 1.8 1.8-.8 1.8-1.8 1.8-1.8-.8-1.8-1.8zM38 94.9c0 3.6 2.9 6.5 6.5 6.5h2.9v-13h-2.9c-3.6 0-6.5 3-6.5 6.5zm3.3 0c0-1 .8-1.8 1.8-1.8s1.8.8 1.8 1.8-.8 1.8-1.8 1.8-1.8-.8-1.8-1.8z"/></g></symbol><symbol id="filters-lpg" viewBox="0 0 165 165" xml:space="preserve" xmlns="http://www.w3.org/2000/svg"><style>.est0{fill:#2a353e}</style><path class="est0" d="M90.9 385.6v-10.2c.6.8 1.3 1.6 2.2 2.4v13c-1.4-1.7-2.2-3.4-2.2-5.2zm0-20.1c0 3.1 2.3 6 6.2 8.2 4 2.2 9.5 3.6 15.7 3.6s11.7-1.4 15.7-3.6 6.2-5.2 6.2-8.2c0-3.1-2.3-6-6.2-8.2-4-2.2-9.5-3.6-15.7-3.6-6.2 0-11.7 1.4-15.7 3.6-3.9 2.1-6.2 5.1-6.2 8.2zm10-1c0-3.8 5.3-6.9 11.9-6.9 6.6 0 11.9 3.1 11.9 6.9v.2c-2.5-2.6-6.8-4-11.6-4.1-5 0-9.5 1.4-12.1 4.1-.1 0-.1-.1-.1-.2zm.7 2.3c1.8-2.5 6.3-4.4 11.4-4.3 5 0 9.3 1.9 11 4.3-1.7 2.7-6.2 4.6-11.2 4.6-5 0-9.5-1.9-11.2-4.6zM91 391c1.3 1.7 3.1 3.2 5.2 4.4 4.3 2.4 10.1 3.9 16.6 3.9 6.4 0 12.3-1.4 16.6-3.9 2.2-1.2 4-2.7 5.3-4.4-.4 2.8-2.6 5.4-6.2 7.4-4 2.2-9.5 3.6-15.7 3.6-6.2 0-11.7-1.4-15.7-3.6-3.6-2-5.8-4.6-6.1-7.4z" transform="translate(0 -288.533)"/><path class="est0" d="M91 370.9c1.3 1.7 3.1 3.2 5.3 4.4 4.3 2.4 10.2 3.9 16.6 3.9 6.4 0 12.3-1.5 16.6-3.9 2.2-1.2 4-2.7 5.3-4.4-.4 2.8-2.6 5.4-6.2 7.4-4 2.2-9.5 3.6-15.7 3.6-6.2 0-11.7-1.4-15.7-3.6-3.7-2-5.9-4.6-6.2-7.4zm3.9 21.5v-13.3c.4.3.8.5 1.3.8.5.3 1 .6 1.6.8v13.5c-.2-.1-.5-.2-.7-.3-.8-.5-1.5-1-2.2-1.5zm4.7 2.6v-13.6c.9.4 1.9.7 2.9.9V396c-1-.3-2-.6-2.9-1zm4.7 1.5v-13.7c.9.2 1.9.4 2.9.5V397c-1-.1-1.9-.3-2.9-.5zm4.7.7v-13.7c.9.1 1.9.1 2.9.2v13.7c-1 0-1.9-.1-2.9-.2zm4.7.2v-13.7c1 0 1.9-.1 2.9-.2v13.7c-.9.1-1.9.2-2.9.2zm4.7-.4v-13.7c1-.1 1.9-.3 2.9-.5v13.7c-.9.2-1.9.4-2.9.5zm4.7-1v-13.6c1-.3 2-.6 2.9-.9V395c-.9.4-1.8.7-2.9 1zm4.7-1.8v-13.5c.5-.3 1.1-.5 1.6-.8.5-.3.9-.5 1.3-.8v13.3c-.7.5-1.4 1-2.2 1.5-.2 0-.4.1-.7.3zm4.8-3.5v-13c.9-.7 1.6-1.5 2.2-2.4v10.3c0 1.8-.8 3.5-2.2 5.1zm-19.8-26.2c2 0 3.7.8 3.7 1.8s-1.6 1.8-3.7 1.8c-2 0-3.7-.8-3.7-1.8.1-.9 1.7-1.8 3.7-1.8z" transform="translate(0 -288.533)"/><path transform="rotate(-180 54.001 122.988)" class="est0" d="M48.4 115.3h11.2v15.4H48.4z"/><path class="est0" d="M48.4 132h11.2c.6 0 1.1.5 1.1 1.1l-.3 4.8c0 .6-.5 1.1-1.1 1.1H48.7c-.6 0-1.1-.5-1.1-1.1l-.3-4.8c0-.6.5-1.1 1.1-1.1zm26.7-72.4H32.9c-1.5 0-2.7-1.2-2.7-2.7v-.3c0-1.5 1.2-2.7 2.7-2.7h42.2c1.5 0 2.7 1.2 2.7 2.7v.3c0 1.5-1.2 2.7-2.7 2.7zM48.4 34.3h11.2v18.3H48.4zM32.5 60.9h43v4.2h-43zM59.6 33H48.4c-.6 0-1.1-.5-1.1-1.1l.3-4.8c0-.6.5-1.1 1.1-1.1h10.7c.6 0 1.1.5 1.1 1.1l.3 4.8c-.1.6-.6 1.1-1.2 1.1zm10.2 42.1H38.2c-.7 0-1.3.6-1.3 1.3V104c0 .7.6 1.3 1.3 1.3h31.5c.7 0 1.3-.6 1.3-1.3V76.4c0-.7-.5-1.3-1.2-1.3z"/><path class="est0" d="M76.2 66.5H31.8c-.9 0-1.6.7-1.6 1.6v44.3c0 .9.7 1.6 1.6 1.6h44.3c.9 0 1.6-.7 1.6-1.6V68c.1-.8-.7-1.5-1.5-1.5zM71.7 104c0 1.1-.9 1.9-1.9 1.9H38.2c-1.1 0-1.9-.9-1.9-1.9V76.4c0-1.1.9-1.9 1.9-1.9h31.5c1.1 0 1.9.9 1.9 1.9V104z"/></symbol><symbol id="form-arrow-download" viewBox="0 0 100 125" xml:space="preserve" xmlns="http://www.w3.org/2000/svg"><style>.fst0{fill:#fff}</style><path class="fst0" d="M42.5 49.3v-20h15v20h10L50 64.3l-17.5-15zm-15 20h45v5h-45z"/></symbol><symbol id="injector-lpg" viewBox="0 0 165 165" xml:space="preserve" xmlns="http://www.w3.org/2000/svg"><style>.gst0{fill:#2a353e}</style><path class="gst0" d="M103.9 100.9h27.3v1.6h-27.3zm-.6 2.5v2.3s2.2 4.5 14.2 4.5 14.2-4.5 14.2-4.5v-2.3h-28.4z"/><path class="gst0" d="M126.6 109.9c-2.1.7-5 1.2-9 1.2s-6.9-.5-9-1.2v7.5c0 .4.5.7 1.4 1v1.8c0 .6 1.8 2.5 4.3 2.7v8.1c-.3.1-.4.3-.4.4v2c0 .1.1.2.2.3v.1c-.1.1-.2.2-.2.3v2.3c0 .5 1.7.9 3.8.9s3.8-.4 3.8-.9v-2.3c0-.1-.1-.2-.2-.3v-.1c.1-.1.2-.2.2-.3v-2c0-.1-.2-.3-.4-.4v-8.1c2.6-.3 4.3-2.1 4.3-2.7v-1.8c.9-.3 1.4-.6 1.4-1v-7.5zM103 88.5h29v11.6h-29zm3.5-15.6h22.1v1.9h-22.1zm1-5h20.1V72h-20.1zm-1.2-2.2h22.5l-1.2 1.3h-20.1zm0-5h22.5v4.1h-22.5zm20.8-3.8h-19.2l-1.6 3h22.5zm-6.4-28.7c0-.2-1.4-.3-3.2-.3s-3.2.1-3.2.3l-.7 4.6c0 .2 1.7.4 3.9.4s3.9-.2 3.9-.4l-.7-4.6zm2.7 18.6c-1.1-.4-2-1.1-2.6-2v-11c-.7.1-1.9.2-3.3.2s-2.7-.1-3.3-.2v11c-.5.9-1.4 1.6-2.6 2l-3.7 5.5v3.8H127v-3.8l-3.6-5.5zm-21.9 16.4c.4-.1 1.4-.5 1.1-1.3l-2.8-8.5c-.2-.7-1-1.1-1.6-.8l-15.7 5.8c-.9.4-1 .8-.9 1l2.8 8.7c.2.7 1 1.1 1.6.8l9.4-3.1 7.2 21.8h6.7l-7.8-24.4zm30.8 12.3h-26l3.9 12.1H133c1 0 1.8-.8 1.8-1.8v-7.6c.1-1.5-1.1-2.7-2.5-2.7z"/><path class="gst0" d="M94.2 86.7L92.3 81l-.7.2c-.3.1-.7-.1-.8-.4l-3.7-11.5 7.8-2.5 6.9 20.8h-6.6c-.5 0-.9-.6-1-.9zm-7.9-17.4l-.7.2c-.7.2-1.4-.2-1.6-.8l-.2-.7-1.3 1.8c-.3.7.3 1.3 1 1.1l3.1-1-.3-.6zM52.4 100.9h27.3v1.6H52.4zm-.6 2.5v2.3s2.2 4.5 14.2 4.5 14.2-4.5 14.2-4.5v-2.3H51.8z"/><path class="gst0" d="M75.1 109.9c-2.1.7-5 1.2-9 1.2s-6.9-.5-9-1.2v7.5c0 .4.5.7 1.4 1v1.8c0 .6 1.8 2.5 4.3 2.7v8.1c-.3.1-.4.3-.4.4v2c0 .1.1.2.2.3v.1c-.1.1-.2.2-.2.3v2.3c0 .5 1.7.9 3.8.9 2.1 0 3.8-.4 3.8-.9v-2.3c0-.1-.1-.2-.2-.3v-.1c.1-.1.2-.2.2-.3v-2c0-.1-.2-.3-.4-.4v-8.1c2.6-.3 4.3-2.1 4.3-2.7v-1.8c.9-.3 1.4-.6 1.4-1v-7.5zM51.5 88.5h29v11.6h-29zM55 72.9h22.1v1.9H55zm1-5h20.1V72H56zm-1.2-2.2h22.5L76.1 67H56zm0-5h22.5v4.1H54.8zm20.8-3.8H56.4l-1.6 3h22.5zm-6.4-28.7c0-.2-1.4-.3-3.2-.3s-3.2.1-3.2.3l-.7 4.6c0 .2 1.7.4 3.9.4s3.9-.2 3.9-.4l-.7-4.6zm2.7 18.6c-1.1-.4-2-1.1-2.6-2v-11c-.6.1-1.8.2-3.3.2-1.4 0-2.7-.1-3.3-.2v11c-.5.9-1.4 1.6-2.6 2l-3.7 5.5v3.8h19.1v-3.8l-3.6-5.5zM50 63.2c.4-.1 1.4-.5 1.1-1.3l-2.8-8.5c-.2-.7-1-1.1-1.6-.8L31 58.4c-.9.4-1 .8-.9 1l2.8 8.7c.2.7 1 1.1 1.6.8l9.4-3.1 7.2 21.8h6.7L50 63.2zm30.8 12.3h-26l3.9 12.1h22.8c1 0 1.8-.8 1.8-1.8v-7.6c.1-1.5-1.1-2.7-2.5-2.7z"/><path class="gst0" d="M42.7 86.7L40.8 81l-.7.2c-.3.1-.7-.1-.8-.4l-3.7-11.5 7.8-2.5 6.9 20.8h-6.6c-.5 0-.9-.6-1-.9zm-7.9-17.4l-.7.2c-.7.2-1.4-.2-1.6-.8l-.2-.7-1.3 1.9c-.3.7.3 1.3 1 1.1l3.1-1-.3-.7z"/></symbol><symbol id="krepeg-lpg" viewBox="0 0 165 165" xml:space="preserve" xmlns="http://www.w3.org/2000/svg"><style>.hst0{fill:#2a353e}</style><path class="hst0" d="M108.3 126.1c7.1-6.1 11.8-14.5 13.4-23.6v-.1c.3-.3.5-.6.6-.9.3-.7.3-1.9-.1-3.6v-1.1c.4-1.3.5-2.7.1-4l-.3-1.3v-.1l.3-.9c.4-1.1.3-2.4-.4-3.4l-1-1.5v-.1l.1-.6c.3-1.6-.2-3.3-1.3-4.5l-.9-1v-.1c.2-2.1-.8-4.1-2.7-5.1l-.1-.1v-.7c.1-1.6-.9-3.2-2.4-3.8l-1.5-.6v-.1c0-1.8-1.3-3.4-3.1-3.8l-1.2-.3v-.1c-.1-.8-.5-1.6-1-2.2-2 .8-4.3 2-5.7 2.8 10.5 6.5 17 17.9 17 30.4 0 19.7-16 35.7-35.7 35.7s-35.7-16-35.7-35.7c0-16 10.8-30 25.9-34.3-.3-1.4-1-2.8-2.2-3.8-7.4 2.3-14 6.8-19 12.9-5.8 7.1-9 16-9 25.2 0 22 17.9 39.9 39.9 39.9 9.6.1 18.8-3.3 26-9.5zM69.9 31.6l-7.2-2.3c-.1 0-.2-.1-.2-.1l-.8.1c-.5.2-1.1.7-1.6 1.6L57 53.5c.2.7.5 1.2.9 1.5l.8.3h.3l7.5-.3h.2s.7 0 .7-.3l2.7-23c-.1 0-.1 0-.2-.1zm-11.5-.3L49.1 30c-.7-.1-1.3.1-1.8.6s-.8 1-1.1 1.6c-.9 1.9-2.8 6.4-3.1 8.5 0 .7.3 1.4.9 1.8.4.3.8.5 1.1.7v.1l-1 1.7s-.1.1-.1 0c-.2 0-.5 0-.7.2-.2.2-.3.4-.3.7 0 .8.2 1.5.4 2.2l.3.8c.3.8 1 1.4 1.9 1.5l9.7 1.7 3.1-20.8z"/><path class="hst0" d="M96.1 66.5c4-2.8 8.2-4.8 12.9-6.1 1-.2 1.7-1 1.8-2l2.4-16.8c.1-.4.1-.7.1-1 .1-3.5-2.2-4.1-6.7-5l-29.4-5.5c-2.1-.4-3.7-.1-5.4 1.1l-2.5 21.6c4.3 4.5 5.5 7 5.9 10.5.6.6 1.4 1 2.3 1.2l16 2.5c.9.2 1.8 0 2.6-.5z"/></symbol><symbol id="logo" viewBox="0 0 166 36" xml:space="preserve" xmlns="http://www.w3.org/2000/svg"><style>.ist0{fill:#e04228}</style><path class="ist0" d="M6 4.9C9.7 1.9 14.5.3 20.3.3c2.2 0 4.2.2 6.1.5 1.6.3 3 .7 4 1.2l-1.9 7.5c-1.1-.5-2.3-.9-3.5-1.1-1.4-.3-3.1-.4-4.9-.4-3.1 0-5.6.8-7.4 2.4-2.1 1.8-3.1 4.3-3.1 7.7 0 3.2.9 5.7 2.8 7.6 1.8 1.8 4.2 2.7 7.1 2.7 1.5 0 2.5-.1 2.9-.3v-6H18v-7.2h13.6v19c-1.6.5-3.4.9-5.5 1.3-2.4.4-4.6.7-6.7.7h-.2c-6.3 0-11.1-1.6-14.4-4.7C1.6 27.9 0 23.8 0 18.6 0 12.7 2 8.2 6 4.9zM41.8.3h1.9v35.4h-1.9z"/></symbol><symbol viewBox="0 0 165 165" id="magistral-lpg" xmlns="http://www.w3.org/2000/svg"><path d="M28.1 88.1c.1 1.2.3 2.4.5 3.7l.3 1.8c.1.6.3 1.2.4 1.8l.9 3.6 1.3 3.5c.2.6.4 1.2.7 1.7l.8 1.7c2 4.5 4.8 8.6 8 12.4 3.2 3.8 7 7 11 9.9l3.2 1.9c.5.3 1.1.6 1.6.9l1.7.8c1.1.5 2.2 1.1 3.4 1.6l3.5 1.3c3.4 1.1 6.9 1.9 10.4 2.4.5.1 1 .1 1.5 0s.9-.3 1.4-.5c.9-.5 1.7-1.2 2.3-2.1 1.3-1.9 1.9-4.5 1.9-7.5s-.6-5.7-1.4-7.7c-.4-1-.8-1.8-1.3-2.3-.2-.3-.5-.5-.8-.6-.3-.2-.6-.3-.9-.4-2.2-.3-4.3-.8-6.3-1.5l-2.1-.8c-.7-.3-1.4-.7-2-1l-1-.5c-.3-.2-.6-.4-1-.6l-1.9-1.2c-2.4-1.8-4.8-3.7-6.7-6-1.9-2.3-3.7-4.8-4.9-7.6l-.5-1c-.1-.3-.3-.7-.4-1.1l-.8-2.1-.6-2.2c-.1-.4-.2-.7-.3-1.1l-.2-1.1c-2.2-12 2.9-24.7 12.6-32.1 2.3-1.9 5.1-3.3 7.8-4.5 1.4-.5 2.8-1.1 4.3-1.4 1.4-.5 2.9-.6 4.4-.9 3-.3 6.1-.4 9 .2 1.5.1 2.9.6 4.4 1 .7.2 1.4.5 2.1.7.7.3 1.4.5 2.1.8l2 1c.7.4 1.3.8 1.9 1.2l1 .6.9.7 1.8 1.4c2.3 2 4.4 4.2 6.1 6.7 1.6 2.5 3.2 5.1 4.1 8l.4 1.1c.1.4.2.7.3 1.1l.6 2.2.4 2.4c0 .3.2.6.4.9.2.3.4.5.6.8.6.5 1.4.9 2.3 1.3 2 .8 4.7 1.4 7.7 1.4s5.6-.7 7.5-1.9c.9-.6 1.7-1.4 2.1-2.3.2-.4.4-.9.5-1.4.1-.5.1-1 0-1.5l-.6-4-.9-3.6c-.2-.6-.3-1.2-.5-1.8l-.6-1.7c-1.5-4.7-4-9.1-6.7-13.2-2.8-4.1-6.2-7.7-10-10.9-1-.8-2-1.5-2.9-2.2l-1.5-1.1-1.6-1c-1.1-.6-2.1-1.3-3.2-1.9l-3.3-1.6c-1.1-.6-2.3-1-3.4-1.4-1.2-.4-2.3-.9-3.5-1.2-2.4-.6-4.8-1.3-7.2-1.6-4.9-.8-9.8-.8-14.7-.3-2.4.4-4.9.7-7.3 1.4-2.4.5-4.7 1.4-7 2.3-4.5 2-8.9 4.3-12.8 7.4l-1.5 1.1-1.4 1.2c-.9.8-1.8 1.6-2.7 2.5-1.7 1.8-3.4 3.6-4.8 5.6-1.5 1.9-2.8 4.1-4.1 6.2-.6 1.1-1.1 2.2-1.7 3.3-.5 1.1-1.1 2.2-1.5 3.4l-1.3 3.5c-.4 1.2-.6 2.4-1 3.6l-.4 1.8-.3 1.8-.6 3.7-.2 3.7-.1 1.8c0 .6 0 1.2.1 1.8l.2 3.8zm46.4 44.8c1.2.2 2.4-.4 3.2-1.5.9-1.2 1.4-2.8 1.6-4.7.1-1.9-.1-3.6-.6-4.8-.5-1.3-1.2-2.2-2-2.3-.6-.1-1.2.2-1.8.7 1.1-1.9 2.3-3.2 3.3-3 .9.2 1.7 1.2 2.2 3 .6 1.7 1 4.1.9 6.6-.1 2.5-.7 4.8-1.7 6.4-1 1.6-2.4 2.7-3.8 2.4-1.6-.2-2.8-1.8-3.3-4 .5.7 1.2 1.1 2 1.2zM33.3 80c.4-7.4 2.5-14.9 6.1-21.4 3.7-6.5 8.8-12.2 14.9-16.5 6.1-4.4 13.3-7.1 20.6-8.3 7.4-1.2 15-.7 22.2 1.5 14.3 4.4 26.5 15.4 31.7 29.5-.4.8-.8 1.4-1.4 2-2.4-6.7-6.3-13-11.5-18-5.1-5-11.4-8.8-18.2-11.1-13.6-4.7-29.3-2.5-41.2 5.4-12 7.9-20.2 21.4-21.2 35.8-1.2 14.3 4.4 29.1 15.1 38.7-.2.7-.4 1.5-.4 2.4-5.6-4.9-10.1-11.1-13-18-2.8-7-4.1-14.6-3.7-22z"/></symbol><symbol id="multivave-lpg" viewBox="0 0 165 165" xml:space="preserve" xmlns="http://www.w3.org/2000/svg"><style>.kst0{fill:#2a353e}</style><path class="kst0" d="M69.2 58l.5 7.5.4 8 2.4-.2-.9-15.4zm3.4 15.3zM65.1 64c-.9.8-1.3 1.8-1.2 2.9.1 1.5 1.1 2.5 2.4 3l-.4-6.4c-.3.1-.5.3-.8.5zm3.5-5.9l-2.4.1.9 15.4 2.4-.1L69 66zm38.5 5.3V63v.4z"/><path class="kst0" d="M117.6 86.8c.2-1.6.3-3.2.3-4.8 0-19.6-15.9-35.5-35.5-35.5S47 62.5 47 82c0 14.7 9 27.4 21.8 32.7l-.5-4.3 1.5-.2.7 5.1c3.8 1.4 7.8 2.1 12 2.1 6.4 0 12.3-1.7 17.5-4.6l-2.6-3.8 1.2-.8 2.6 3.9c8.3-5.2 14.4-13.8 16.2-23.8l-3.7-1 .4-1.4 3.5.9zm-10.4-23c-6.7 1.3-26.1 5.1-34.2 6.5l.2 3.1c0 .3-.2.5-.5.5l-2.7.2h-.3l-2.7.2c-.3 0-.5-.2-.5-.5l-.2-3.3c-1.8-.6-2.9-1.9-3.1-3.6-.1-1.4.4-2.5 1.5-3.4.3-.3.7-.5 1.1-.7l-.3-4.7c0-.1 0-.3.1-.4.1-.1.2-.2.3-.2l2.7-.2h.4l2.7-.2c.1 0 .3 0 .4.1.1.1.2.2.2.3l.3 4.3c8.4.1 27.8.6 34.6.7.3 0 .5.2.5.5 0 .5-.2.7-.5.8z"/><path class="kst0" d="M72.9 69.6c7.8-1.4 25.6-4.8 33.1-6.3-7.6-.2-25.5-.7-33.5-.7l.4 7z"/><circle class="kst0" cx="82.5" cy="34.2" r="3.4"/><path class="kst0" d="M126.4 104.7c-.5-.3-1.1-.5-1.7-.5-.3 0-.6 0-.9.1-.9.2-1.6.8-2.1 1.6-1 1.6-.4 3.7 1.2 4.7.8.5 1.7.6 2.6.4.9-.2 1.6-.8 2.1-1.6s.6-1.7.4-2.6-.9-1.7-1.6-2.1zm-43.9 22c-1.8 0-3.4 1.5-3.4 3.4 0 1.8 1.5 3.4 3.4 3.4 1.8 0 3.4-1.5 3.4-3.4s-1.6-3.4-3.4-3.4zm-40.4-72c-.5-.3-1.1-.5-1.7-.5-1.2 0-2.3.6-3 1.7-.5.8-.6 1.7-.4 2.6s.8 1.6 1.6 2.1c1.6 1 3.7.4 4.7-1.2s.5-3.7-1.2-4.7zm-1.7 49.5c-.6 0-1.2.2-1.7.5-.8.5-1.3 1.2-1.6 2.1s-.1 1.8.4 2.6c1 1.6 3.1 2.2 4.7 1.2 1.6-1 2.2-3.1 1.2-4.7-.7-1.1-1.8-1.7-3-1.7zm85.1-49.8c-.9-.2-1.8-.1-2.6.4-1.6 1-2.2 3.1-1.2 4.7.5.8 1.2 1.3 2.1 1.6.9.2 1.8.1 2.6-.4s1.3-1.2 1.6-2.1.1-1.8-.4-2.6-1.3-1.4-2.1-1.6zM103.7 116.8c1-1 2.1-1.7 3.4-2.3 9.8-7.4 16.1-19.2 16.1-32.4 0-22.5-18.3-40.7-40.7-40.7S41.8 59.6 41.8 82c0 13.2 6.3 25 16.1 32.4 1.3.6 2.4 1.4 3.4 2.3 6.2 3.8 13.5 6 21.2 6 7.8.1 15.1-2.1 21.2-5.9zM46.4 82c0-9.6 3.8-18.7 10.6-25.5 6.8-6.8 15.9-10.6 25.5-10.6s18.7 3.8 25.5 10.6c6.8 6.8 10.6 15.9 10.6 25.5s-3.8 18.7-10.6 25.5c-6.8 6.8-15.9 10.6-25.5 10.6s-18.7-3.8-25.5-10.6c-6.9-6.8-10.6-15.8-10.6-25.5z"/><path class="kst0" d="M82.5 123.4c-7.1 0-13.8-1.8-19.9-5.1 1.5 2.1 2.4 4.6 2.4 7.3v7.4c11.2 4.7 23.8 4.7 34.9 0v-7.4c0-2.7.9-5.3 2.4-7.3-6 3.4-12.7 5.1-19.8 5.1zm0 10.7c-2.2 0-4-1.8-4-4s1.8-4 4-4 4 1.8 4 4-1.8 4-4 4z"/><path class="kst0" d="M126.5 51.8l-39.1-23c-3-1.8-6.8-1.8-9.8 0l-39.1 23c-2.8 1.7-4.6 4.8-4.6 8.1v49.5c0 3.3 1.7 6.4 4.6 8.1l3.4 2.1c2.1-3.8 6.2-6.3 10.8-6.3 1.1 0 2.2.1 3.2.4-.9-.8-1.8-1.6-2.6-2.4-7.8-7.8-12.1-18.2-12.1-29.3 0-11.1 4.3-21.4 12.1-29.3s18.2-12.1 29.3-12.1 21.4 4.3 29.3 12.1 12 18.3 12 29.3c0 11.1-4.3 21.4-12.1 29.3-.9.9-1.7 1.7-2.6 2.4 1-.3 2.1-.4 3.2-.4 4.6 0 8.7 2.6 10.8 6.3l3.4-2.1c2.8-1.7 4.6-4.8 4.6-8.1V60c-.1-3.4-1.8-6.4-4.7-8.2zm-82.6 53.7c1.1 1.9.5 4.4-1.4 5.6-.7.4-1.4.6-2.1.6-1.4 0-2.8-.7-3.5-2-.6-.9-.7-2-.4-3.1.3-1.1.9-1.9 1.9-2.5 1.8-1.2 4.4-.5 5.5 1.4zm0-45.7c-.8 1.3-2.1 2-3.5 2-.7 0-1.4-.2-2.1-.6-.9-.6-1.6-1.4-1.9-2.5-.3-1.1-.1-2.2.4-3.1 1.1-1.9 3.7-2.6 5.6-1.4 2 1.1 2.7 3.6 1.5 5.6zm38.6-21.6c-2.2 0-4-1.8-4-4s1.8-4 4-4 4 1.8 4 4-1.8 4-4 4zm45.6 71.5c-.6.9-1.4 1.6-2.5 1.9-.3.1-.7.1-1 .1-.7 0-1.4-.2-2.1-.6-1.9-1.1-2.6-3.7-1.4-5.6.6-.9 1.4-1.6 2.5-1.9 1.1-.3 2.2-.1 3.1.4.9.6 1.6 1.4 1.9 2.5.2 1.2.1 2.3-.5 3.2zm.5-51c-.3 1.1-.9 1.9-1.9 2.5-.6.4-1.4.6-2.1.6-.3 0-.7 0-1-.1-1.1-.3-1.9-.9-2.5-1.9-1.1-1.9-.5-4.4 1.4-5.6.9-.6 2-.7 3.1-.4 1.1.3 1.9.9 2.5 1.9.6.8.7 1.9.5 3zM53.5 122.5c-.2-.2-.5-.4-.8-.4-.3 0-.6.1-.8.4l-2.8 3.2c-.1.1-.1.2-.1.3 0 .1.1.2.2.3l.6.2c.4.2.7.6.7 1v4.3c0 .4.4.8.8.8h2.9c.4 0 .8-.4.8-.8v-4.3c0-.4.3-.9.7-1l.6-.2c.1 0 .2-.1.2-.3 0-.1 0-.2-.1-.3l-2.9-3.2z"/><path class="kst0" d="M52.7 113.9c-6.5 0-11.7 5.3-11.7 11.7v11.9h23.5v-11.9c-.1-6.4-5.4-11.7-11.8-11.7zm4.3 12.2c-.1.3-.3.6-.6.7l-.6.2c-.2.1-.3.2-.3.4v4.3c0 .8-.7 1.5-1.5 1.5h-2.9c-.8 0-1.5-.7-1.5-1.5v-4.3c0-.2-.1-.4-.3-.4l-.6-.2c-.3-.1-.5-.4-.6-.7-.1-.3 0-.7.2-.9l2.8-3.2c.3-.4.8-.6 1.3-.6s1 .2 1.3.6l2.8 3.2c.5.3.6.6.5.9z"/><g><path class="kst0" d="M112.3 113.9c-6.5 0-11.7 5.3-11.7 11.7v11.9h23.5v-11.9c0-6.4-5.3-11.7-11.8-11.7zm4.2 15.6l-2.8 3.2c-.3.4-.8.6-1.3.6s-1-.2-1.3-.6l-2.8-3.2c-.2-.2-.3-.6-.2-.9.1-.3.3-.6.6-.7l.6-.2c.2-.1.3-.2.3-.4V123c0-.8.7-1.5 1.5-1.5h2.9c.8 0 1.5.7 1.5 1.5v4.3c0 .2.1.4.3.4l.6.2c.3.1.5.4.6.7-.2.3-.3.6-.5.9z"/><path class="kst0" d="M115.8 128.5l-.6-.2c-.4-.2-.7-.6-.7-1V123c0-.4-.4-.8-.8-.8h-2.9c-.4 0-.8.4-.8.8v4.3c0 .4-.3.9-.7 1l-.6.2c-.1 0-.2.1-.2.3 0 .1 0 .2.1.3l2.8 3.2c.2.2.5.4.8.4.3 0 .6-.1.8-.4l2.8-3.2c.1-.1.1-.2.1-.3.1-.2 0-.3-.1-.3z"/></g><g><path class="kst0" d="M20.4 83.2c0-4 1.1-7.3 2.5-7.3h-4.6c-1.4 0-2.5 3.3-2.5 7.3s1 7.3 2.4 7.3h4.6c-1.4 0-2.4-3.3-2.4-7.3zm2.6 0c0 2.4.7 3.9 1.2 3.9h1.5c.2-1.1.4-2.4.4-3.9 0-1.4-.1-2.7-.4-3.9h-1.5c-.5 0-1.2 1.5-1.2 3.9z"/><path class="kst0" d="M24.2 87.7c-1.2 0-1.9-2.3-1.9-4.5s.7-4.5 1.9-4.5h1.3c-.5-1.7-1.2-2.8-2-2.8-1.4 0-2.5 3.3-2.5 7.3s1 7.3 2.4 7.3c.8 0 1.6-1.1 2.1-2.8h-1.3z"/><path class="kst0" d="M33.1 79.3h-8.9c-.5 0-1.2 1.5-1.2 3.9s.7 3.9 1.2 3.9h8.9v-7.8z"/></g><g><path class="kst0" d="M144.6 82.8c0 4-1.1 7.3-2.5 7.3h4.6c1.4 0 2.5-3.3 2.5-7.3s-1.1-7.3-2.5-7.3h-4.6c1.3 0 2.5 3.3 2.5 7.3zm-2.6 0c0-2.4-.7-3.9-1.2-3.9h-1.5c-.2 1.1-.4 2.4-.4 3.9 0 1.4.1 2.7.4 3.9h1.5c.5 0 1.2-1.5 1.2-3.9z"/><path class="kst0" d="M140.8 78.3c1.2 0 1.9 2.3 1.9 4.5s-.7 4.5-1.9 4.5h-1.3c.5 1.7 1.2 2.8 2 2.8 1.4 0 2.5-3.3 2.5-7.3s-1.1-7.3-2.5-7.3c-.8 0-1.5 1.1-2 2.8h1.3z"/><path class="kst0" d="M131.9 86.7h8.9c.5 0 1.2-1.5 1.2-3.9s-.7-3.9-1.2-3.9h-8.9v7.8z"/></g></symbol><symbol id="reducer-lpg" viewBox="0 0 165 165" xml:space="preserve" xmlns="http://www.w3.org/2000/svg"><style>.lst0{fill:#2a353e}</style><path class="lst0" d="M58.6 39.9H110V53H58.6zM72 26h24.6v13.1H72zm-3 13.1h-7v-1.3c0-1.5 1.2-2.6 2.6-2.6h1.8c1.5 0 2.6 1.2 2.6 2.6v1.3zm37.7 0h-7v-1.3c0-1.5 1.2-2.6 2.6-2.6h1.8c1.5 0 2.6 1.2 2.6 2.6v1.3zm1.2-10.3v.3h-.9v-.3h-2.5v.3h-.9v-.3h-2.5v.3h-.9v-.3H99v-.2h-1.6v5.9H99v-.3h1.2V34h.9v.2h2.5V34h.9v.2h2.5V34h.9v.2h2.9v-5.4zM47.4 65v-.2h.9v.2h2.5v-.2h.9v.2h2.5v-.2h.9v.2h1.2v.3h1.6v-7.4h-1.6v.3h-1.2v.2h-.9v-.2h-2.5v.2h-.9v-.2h-2.5v.2h-.9v-.2h-5.1V65zm4.5 38.5h-16V99c0-6.6 5.3-11.9 11.9-11.9h4v16.4zm.7-12.2h5.3v8.1h-5.3zm0-4.2h5.3v3.4h-5.3zm0 13h5.3v3.4h-5.3zm58.2-8.8h5.3v8.1h-5.3zm0-2.8h5.3v2.8h-5.3z"/><path class="lst0" d="M110.8 99.2h5.3v2.8h-5.3zm-60.6 17.4v-2h.5v-2h-.5v-2h.5v-2h-.5v-2h.5v-2.3H37.1v2.3h.5v2h-.5v2h.5v2h-.5v2h.5v2h-.5v1c0 1 .8 1.9 1.9 1.9h9.8c1 0 1.9-.8 1.9-1.9v-1h-.5zm79-27.6h-2v-.5h-2v.5h-2v-.5h-2v.5h-2v-.5h-2.3v13.6h2.3v-.5h2v.5h2v-.5h2v.5h2v-.5h2v.5h1c1 0 1.9-.8 1.9-1.9v-9.8c0-1-.8-1.9-1.9-1.9h-1v.5zM71.9 62.4c-3.6 0-6.6 2.9-6.6 6.6 0 3.6 2.9 6.6 6.6 6.6 3.6 0 6.6-2.9 6.6-6.6-.1-3.7-3-6.6-6.6-6.6zm2.5 7.6l-1.5 1.5h-2.1L69.3 70v-2.1l1.5-1.5h2.1l1.5 1.5V70zm21.5-3.2l-1.3 1.3v1.7l1.3 1.3h1.8l1.2-1.3v-1.7l-1.2-1.3z"/><path class="lst0" d="M96.8 62.4c-3.6 0-6.6 2.9-6.6 6.6 0 3.6 2.9 6.6 6.6 6.6 3.6 0 6.6-2.9 6.6-6.6 0-3.7-3-6.6-6.6-6.6zm2.5 7.6l-1.5 1.5h-2.1L94.3 70v-2.1l1.5-1.5h2.1l1.5 1.5V70z"/><path class="lst0" d="M58.6 53.7v75.5H110V53.7H58.6zm13.3 22.2c-3.8 0-6.9-3.1-6.9-6.9 0-3.8 3.1-6.9 6.9-6.9 3.8 0 6.9 3.1 6.9 6.9 0 3.8-3.1 6.9-6.9 6.9zm24.9 0c-3.8 0-6.9-3.1-6.9-6.9 0-3.8 3.1-6.9 6.9-6.9 3.8 0 6.9 3.1 6.9 6.9 0 3.8-3.1 6.9-6.9 6.9z"/><path class="lst0" d="M71 66.8l-1.3 1.3v1.7l1.3 1.3h1.8l1.2-1.3v-1.7l-1.2-1.3zM61.8 129.9h45v5.3h-45z"/></symbol><symbol id="smesitel-lpg" viewBox="0 0 165 165" xml:space="preserve" xmlns="http://www.w3.org/2000/svg"><style>.mst0{fill:#2a353e}</style><path class="mst0" d="M113.2 99.7c-4.7 0-8.5 3.8-8.5 8.5s3.8 8.5 8.5 8.5 8.5-3.8 8.5-8.5-3.8-8.5-8.5-8.5zm0 15.7c-4 0-7.2-3.2-7.2-7.2s3.2-7.2 7.2-7.2 7.2 3.2 7.2 7.2c0 3.9-3.2 7.2-7.2 7.2z"/><circle transform="rotate(-9.213 113.213 108.128)" class="mst0" cx="113.2" cy="108.1" r="6.4"/><path class="mst0" d="M96.4 120.4l-1.6 2.8 1.6 2.8h3.3l1.6-2.8-1.6-2.8z"/><path class="mst0" d="M142.3 101.2c-1.6-3.6-5.4-5.6-9.2-5.1l-7.8 1-7.9-17V41.9c0-3.9-3.2-7-7-7H33c-3.9 0-7 3.2-7 7v31.6c0 3.9 3.2 7 7 7h16.4l40.4 46.6c2.4 2.9 6.6 3.9 10.2 2.3l37.8-16.7c4.4-1.9 6.4-7.1 4.5-11.5zM111.5 38c1.6 0 2.9 1.3 2.9 2.9 0 1.6-1.3 2.9-2.9 2.9-1.6 0-2.9-1.3-2.9-2.9 0-1.6 1.3-2.9 2.9-2.9zm-78.7 0c1.6 0 2.9 1.3 2.9 2.9 0 1.6-1.3 2.9-2.9 2.9-1.6 0-2.9-1.3-2.9-2.9 0-1.6 1.3-2.9 2.9-2.9zm3.1 17.6c0 .4-.3.7-.7.7-.4 0-.7-.3-.7-.7 0-.4.3-.7.7-.7.4 0 .7.3.7.7zm-4.3 4.9c0 .4-.3.7-.7.7-.4 0-.7-.3-.7-.7 0-.4.3-.7.7-.7.3-.1.7.3.7.7zm-2.2-4.2c-.4 0-.7-.3-.7-.7 0-.4.3-.7.7-.7s.7.3.7.7c0 .4-.3.7-.7.7zm3.4 20.6c-1.6 0-2.9-1.3-2.9-2.9 0-1.6 1.3-2.9 2.9-2.9 1.6 0 2.9 1.3 2.9 2.9 0 1.6-1.3 2.9-2.9 2.9zm3.8-15.7c-.4 0-.7-.3-.7-.7 0-.4.3-.7.7-.7.4 0 .7.3.7.7.1.4-.3.7-.7.7zm17.1 6.5c-6.3 0-11.3-5.1-11.3-11.3 0-6.3 5.1-11.3 11.3-11.3S65 50.1 65 56.3c0 6.3-5 11.4-11.3 11.4zm19.8 4.1c-1.1 0-2-.9-2-2s.9-2 2-2 2 .9 2 2c.1 1.1-.8 2-2 2zm0-26.8c-1.1 0-2-.9-2-2s.9-2 2-2 2 .9 2 2c.1 1.1-.8 2-2 2zm5.3 9.6c0-7.5 6.1-13.7 13.7-13.7 7.5 0 13.7 6.1 13.7 13.7S100 68.2 92.4 68.2c-7.5 0-13.6-6.1-13.6-13.6zm21.3 72.2h-4.2l-2.1-3.6 2.1-3.6h4.2l2.1 3.6-2.1 3.6zm13.1-9.2c-5.1 0-9.3-4.2-9.3-9.3 0-5.1 4.2-9.3 9.3-9.3 5.1 0 9.3 4.2 9.3 9.3 0 5.2-4.2 9.3-9.3 9.3zm23-8.8H132l-2.1-3.6 2.1-3.6h4.2l2.1 3.6-2.1 3.6z"/><path class="mst0" d="M132.5 102.3l-1.7 2.8 1.7 2.9h3.2l1.6-2.9-1.6-2.8z"/></symbol></svg>