<?xml version="1.0" encoding="utf-8"?>
<!-- Generator: Adobe Illustrator 22.1.0, SVG Export Plug-In . SVG Version: 6.00 Build 0)  -->
<svg version="1.1" id="Слой_1" xmlns="http://www.w3.org/2000/svg" xmlns:xlink="http://www.w3.org/1999/xlink" x="0px" y="0px"
	 viewBox="0 0 166 36" style="enable-background:new 0 0 166 36;" xml:space="preserve">
<style type="text/css">
	.st0{fill:#E04228;}
	.st1{fill:#D9E2E2;}
</style>
<g>
	<g>
		<path class="st0" d="M6,4.9c3.7-3,8.5-4.6,14.3-4.6c2.2,0,4.2,0.2,6.1,0.5C28,1.1,29.4,1.5,30.4,2l-1.9,7.5
			C27.4,9,26.2,8.6,25,8.4c-1.4-0.3-3.1-0.4-4.9-0.4c-3.1,0-5.6,0.8-7.4,2.4c-2.1,1.8-3.1,4.3-3.1,7.7c0,3.2,0.9,5.7,2.8,7.6
			c1.8,1.8,4.2,2.7,7.1,2.7c1.5,0,2.5-0.1,2.9-0.3v-6H18v-7.2h13.6v19c-1.6,0.5-3.4,0.9-5.5,1.3c-2.4,0.4-4.6,0.7-6.7,0.7
			c-0.1,0-0.2,0-0.2,0c-6.3,0-11.1-1.6-14.4-4.7C1.6,27.9,0,23.8,0,18.6C0,12.7,2,8.2,6,4.9z"/>
	</g>
	<g>
		<polygon class="st1" points="54,17.1 58.4,17.1 58.4,4.1 64.6,4.1 64.6,0.5 54,0.5 		"/>
		<path class="st1" d="M88.2,1.7c-1.2-0.9-2.9-1.4-5.3-1.4c-1.2,0-2.3,0-3.3,0.1c-0.8,0.1-1.6,0.2-2.3,0.3v16.4h4.5v-5.6l1.1,0
			c2.4,0,4.2-0.6,5.6-1.7c1.1-1,1.7-2.4,1.7-4.1C90.1,4,89.4,2.6,88.2,1.7z M82.8,8.1l-0.8,0c-0.1,0-0.1,0-0.2,0V3.9
			c0.3-0.1,0.7-0.1,1.3-0.1c1.7,0,2.5,0.7,2.5,2C85.6,7.3,84.7,8.1,82.8,8.1z"/>
		<path class="st1" d="M105.1,0.5l-4.8,16.7h4.6l0.9-3.9h4.3l1.1,3.9h4.8l-5-16.7H105.1z M106.4,10l0.7-3l0.7-3.3h0.1l0.8,3.3l0.8,3
			H106.4z"/>
		<polygon class="st1" points="135.2,6.8 129.8,6.8 129.8,0.5 125.3,0.5 125.3,17.1 129.8,17.1 129.8,10.6 135.2,10.6 135.2,17.1 
			139.7,17.1 139.7,0.5 135.2,0.5 		"/>
		<path class="st1" d="M162,21.5h3.4l0.2-7.7l-1.8-0.1V0.5h-12V5c0,1.8-0.2,3.4-0.6,4.9c-0.4,1.4-0.9,2.6-1.6,3.7l-1.5,0.1l0.1,7.7
			h3.4l0.2-4.3h9.8L162,21.5z M159.4,13.6h-4.9c0.5-0.8,0.8-1.7,1.2-2.7c0.5-1.7,0.8-3.3,0.8-4.9V4.1h3V13.6z"/>
		<path class="st1" d="M57.3,26.2L54,35.5h1.1l1.1-3.1h3.2l1.1,3.1h1.1l-3.4-9.3H57.3z M59,31.4h-2.4l1-2.7l0.2-0.8
			c0.1,0.3,0.2,0.5,0.3,0.8L59,31.4z"/>
		<path class="st1" d="M76.6,30.5c0.8-0.4,1.2-1.1,1.2-2c0-0.7-0.2-1.2-0.6-1.6c-0.5-0.5-1.4-0.8-2.5-0.8c-0.7,0-1.3,0.1-1.8,0.2
			l-0.2,0v9.1l0.9,0.1c0.3,0,0.6,0,0.9,0c1.4,0,2.4-0.3,3-0.9c0.5-0.5,0.7-1.1,0.7-1.8c0-0.7-0.2-1.3-0.7-1.8
			C77.1,30.8,76.9,30.6,76.6,30.5z M73.7,30.1v-2.9c0.2,0,0.5-0.1,0.9-0.1c0.7,0,1.2,0.1,1.5,0.3c0.4,0.2,0.5,0.6,0.5,1.1
			c0,0.4-0.2,0.8-0.5,1c-0.3,0.3-0.8,0.4-1.4,0.4H73.7z M76.3,34.2c-0.4,0.3-1,0.4-1.7,0.4c-0.4,0-0.7,0-0.9,0v-3.5h0.9
			c0.7,0,1.3,0.1,1.7,0.4c0.5,0.3,0.7,0.8,0.7,1.3C76.9,33.5,76.7,33.9,76.3,34.2z"/>
		<polygon class="st1" points="89.5,27.2 92.4,27.2 92.4,35.5 93.5,35.5 93.5,27.2 96.4,27.2 96.4,26.2 89.5,26.2 		"/>
		<path class="st1" d="M110.5,26.1c-1.2,0-2.2,0.4-3,1.3c-0.8,0.9-1.2,2.1-1.2,3.6c0,1.4,0.4,2.5,1.2,3.4c0.8,0.9,1.8,1.3,2.9,1.3
			c1.2,0,2.1-0.4,2.9-1.2c0.4-0.4,0.7-0.9,0.9-1.5c0.2-0.6,0.3-1.4,0.3-2.1c0-1.4-0.4-2.5-1.1-3.4C112.7,26.5,111.7,26.1,110.5,26.1
			z M113.5,30.8c0,1.1-0.3,2-0.8,2.7c-0.6,0.8-1.3,1.1-2.2,1.1c-0.9,0-1.6-0.4-2.2-1.2c-0.5-0.7-0.8-1.6-0.8-2.6
			c0-1.1,0.3-2,0.8-2.7c0.6-0.8,1.3-1.2,2.3-1.2c0.5,0,0.9,0.1,1.3,0.3c0.4,0.2,0.7,0.5,0.9,0.9C113.3,29,113.5,29.8,113.5,30.8z"/>
		<polygon class="st1" points="125.7,35.5 126.8,35.5 126.8,27.2 130.4,27.2 130.4,26.2 125.7,26.2 		"/>
		<path class="st1" d="M145.2,26.2l-3.4,9.3h1.1l1.1-3.1h3.2l1.1,3.1h1.1l-3.4-9.3H145.2z M146.8,31.4h-2.4l1-2.7l0.2-0.8
			c0.1,0.3,0.2,0.5,0.3,0.8L146.8,31.4z"/>
		<path class="st1" d="M164.3,30.5c0.3-0.1,0.5-0.3,0.7-0.6c0.4-0.5,0.6-1,0.6-1.6c0-0.7-0.3-1.3-0.7-1.7c-0.5-0.4-1.1-0.6-1.8-0.6
			c-0.8,0-1.5,0.2-2.2,0.7l-0.2,0.1l0.4,0.9l0.2-0.2c0.2-0.2,0.5-0.3,0.8-0.4c0.3-0.1,0.6-0.2,0.9-0.2c1,0,1.5,0.4,1.5,1.4
			c0,0.4-0.2,0.8-0.6,1.2c-0.4,0.3-1,0.5-1.6,0.5h-0.6v1h0.6c0.7,0,1.3,0.1,1.7,0.4c0.5,0.3,0.8,0.8,0.8,1.4c0,0.5-0.2,0.9-0.5,1.2
			c-0.4,0.3-0.9,0.5-1.5,0.5c-0.6,0-1.2-0.2-1.8-0.5l-0.2-0.1l-0.4,0.9l0.2,0.1c0.6,0.4,1.4,0.6,2.2,0.6c0.9,0,1.6-0.2,2.2-0.7
			c0.7-0.5,1-1.2,1-2.1C166,31.7,165.4,30.9,164.3,30.5z"/>
	</g>
	<g>
		<rect x="41.8" y="0.3" class="st0" width="1.9" height="35.4"/>
	</g>
</g>
</svg>
